<?xml version="1.0" encoding="UTF-8"?> <!-- Generator: Adobe Illustrator 23.0.4, SVG Export Plug-In . SVG Version: 6.00 Build 0) --> <svg xmlns="http://www.w3.org/2000/svg" xmlns:xlink="http://www.w3.org/1999/xlink" id="Layer_1" x="0px" y="0px" viewBox="0 0 606.13 116.86" style="enable-background:new 0 0 606.13 116.86;" xml:space="preserve"> <style type="text/css"> .st0{fill:#0B9BD7;} </style> <path class="st0" d="M208.38,73.47c-0.32,5.07-4.43,19-22.48,19c-18.37,0-22.8-13.93-22.8-24.7c0-15.83,6.97-27.55,23.75-27.55 c7.92,0,20.58,3.48,21.53,18.68h-13.3c-0.63-3.17-2.53-8.23-8.55-7.92c-7.92,0-10.13,7.92-10.13,14.57 c0,5.38,0.32,15.83,10.13,15.83c6.65,0,8.55-6.02,8.55-8.55L208.38,73.47 M262.53,66.82c0-17.73-12.03-25.97-25.33-25.97 c-13.3,0-25.33,7.92-25.33,25.97s12.03,25.97,25.33,25.97C250.81,92.79,262.53,84.56,262.53,66.82 M249.23,66.82 c0,6.02-1.9,15.2-12.03,15.2s-12.03-8.55-12.03-15.2s1.9-15.2,12.03-15.2C247.01,51.94,249.23,60.81,249.23,66.82z M313.2,91.52 h-12.98V61.44c0-3.48-0.32-9.82-8.23-9.82c-5.7,0-10.13,4.12-10.13,11.72v28.18h-12.98v-49.4h12.35v7.28h0.32 c1.9-2.85,5.38-8.55,14.88-8.55c9.82,0,17.1,5.7,17.1,16.47L313.2,91.52 M372.73,36.74h-35.47v13.93h32.62v11.72h-32.62v17.42H374 v12.03h-50.67V25.02h49.09L372.73,36.74 M427.2,25.02h-12.98v23.75h-0.32c-2.22-3.17-6.02-7.6-14.57-7.6 c-10.77,0-20.58,8.23-20.58,25.33c0,13.3,6.02,26.28,20.58,26.28c5.38,0,11.08-1.9,14.57-7.6h0.32v6.02h12.67L427.2,25.02 M392.37,67.14c0-7.92,2.85-15.2,11.08-15.2c9.18,0,11.08,7.92,11.08,15.83c0,7.28-3.17,13.93-11.72,13.93 C394.58,82.02,392.37,72.84,392.37,67.14z M436.07,91.52h12.98v-49.4h-12.98V91.52z M436.07,36.1h12.98V24.07h-12.98V36.1z M486.74,57.01c-0.63-3.17-1.9-6.65-8.55-6.65s-7.92,2.53-7.92,4.75c0,7.92,31.03,2.22,31.03,20.27c0,14.57-13.62,17.1-21.53,17.1 c-11.08,0-23.43-4.12-23.75-17.1h13.3c0,4.43,2.53,7.28,10.77,7.28c6.65,0,8.23-3.17,8.23-5.07c0-8.23-30.72-2.22-30.72-20.58 c0-7.28,4.43-16.47,19.95-16.47c9.82,0,20.9,2.53,22.17,16.15h-12.67 M555.46,66.82c0-17.73-12.03-25.97-25.33-25.97 c-13.3,0-25.33,7.92-25.33,25.97s12.03,25.97,25.33,25.97C543.42,92.79,555.46,84.56,555.46,66.82 M541.52,66.82 c0,6.02-1.9,15.2-12.03,15.2c-10.13,0-12.03-8.55-12.03-15.2s1.9-15.2,12.03-15.2C539.94,51.94,541.52,60.81,541.52,66.82z M605.81,91.52h-12.98V61.44c0-3.48-0.32-9.82-8.23-9.82c-5.7,0-10.13,4.12-10.13,11.72v28.18h-12.98v-49.4h12.35v7.28h0.32 c1.9-2.85,5.38-8.55,14.88-8.55c9.82,0,17.1,5.7,17.1,16.47L605.81,91.52 M139.02,101.66H58.59c-23.75,0-43.39-19.63-43.39-43.39 s19.63-43.39,43.39-43.39h80.75V0H58.59C25.97-0.31,0,25.97,0,58.27s25.97,58.59,58.59,58.59h80.75v-15.2 M25.97,58.27 c0,18.37,15.2,33.57,33.57,33.57h79.49v-15.2H59.54c-10.13,0-18.37-8.23-18.37-18.37S49.4,39.9,59.54,39.9h79.49V24.7H59.54 C41.17,25.02,25.97,39.9,25.97,58.27 M139.02,50.67H58.9c-4.43,0-7.6,3.17-7.6,7.6s3.17,7.6,7.6,7.6h79.8L139.02,50.67"></path> </svg> 