<?xml version="1.0" encoding="utf-8" ?>
<!DOCTYPE svg PUBLIC "-//W3C//DTD SVG 1.1//EN" "http://www.w3.org/Graphics/SVG/1.1/DTD/svg11.dtd">
<svg xmlns:svg="http://www.w3.org/2000/svg" xmlns="http://www.w3.org/2000/svg" xmlns:xlink="http://www.w3.org/1999/xlink" version="1.1" id="svg5858" x="0px" y="0px" viewBox="0 0 1024 341" style="enable-background:new 0 0 1024 341;" xml:space="preserve"><style type="text/css">.st0{fill:#FFFFFF;} .st1{fill:#54B948;} .st2{fill:#26BCD7;}</style><path id="path5820" class="st0" d="M388.3,27.4h-28.4v132.4h27.9c46,0,74.5-25.6,74.5-66.9C462.3,53.2,433.2,27.4,388.3,27.4 L388.3,27.4z M379.4,45.5h3.9c27.2,0,59.5,8,59.5,47.8c0,39.8-32.3,47.8-59.5,47.8h-3.9V45.5z M551.8,105.2 c0,26.1-9.6,38.8-29.4,38.8c-19.8,0-29.5-12.6-29.5-38.8V27.4h-19.5v83.2c0,31,19.6,51.8,48.9,51.8c29.3,0,48.9-20.8,48.9-51.8V27.4 h-19.4C551.8,27.4,551.8,105.2,551.8,105.2z M626.7,87.2l59.7-59.8h-25.9l-52.2,53.4V27.4h-19.5v132.4h19.5v-54.6l4.5-4.4l47.8,59.2 h26.6L626.7,87.2 M766.8,141.6h-53.1V96.3h51.7V78.2h-51.7V45.5h53.1V27.4h-72.5v132.4h72.5L766.8,141.6 M359.9,328.6h72.5v-18.2 h-53v-45.3H431v-18.1h-51.6v-32.7h53v-18.1h-72.5L359.9,328.6 M581.4,328.6h72.7v-18.2h-53.2v-45.3h51.7v-18.1h-51.7v-32.7h53.2 v-18.1h-72.7V328.6 M581.4,328.6h72.7v-18.2h-53.2v-45.3h51.7v-18.1h-51.7v-32.7h53.2v-18.1h-72.7V328.6 M544.9,196.3V289 l-84.7-92.7h-11.9v132.4h19.5v-93.6l84,93.6h12.4V196.3H544.9 M745,234.7c0-13-6.8-25.1-17.9-31.9c-10.9-5-22.9-7.2-34.9-6.2h-20.9 v132h19.5v-54.5h4.4l37.9,54.5H757l-41.6-56.2C733.2,268.9,745.9,252.9,745,234.7L745,234.7z M726.5,235.5c0,15.1-10,21.9-32.5,21.9 h-3.4V214h2.5C715.9,214,726.5,220.9,726.5,235.5L726.5,235.5L726.5,235.5z M830.5,278.3h33.3c-1.8,19.8-22.8,34.9-40.5,34.9 c-27.2-1.3-48.5-23.7-48.6-50.9c-0.7-21.6,12.8-41.1,33.3-48c20.4-7,43,0.3,55.7,17.8l1.2,1.6l13.4-13.2l-1-1.3 c-20-24.7-54.3-32.5-83.1-18.9c-28.7,13.6-44.4,45.2-37.9,76.3c6.5,31.1,33.4,53.8,65.2,54.8c33.9,0.7,62-26.2,62.8-60.1v-11h-53.8 L830.5,278.3L830.5,278.3z M966.5,196.3l-30.7,53.4l-30.6-53.4h-22.5l43.3,75v57.3h19.5v-57.3l43.3-75H966.5 M973.4,309.4 c0-11.1,8.9-20.2,20.1-20.2c11.1,0,20.2,8.9,20.2,20.1c0,11.1-8.9,20.2-20.1,20.2c-5.3,0-10.4-2-14.2-5.7c-3.8-3.7-5.9-8.8-6-14.1 C973.5,309.7,973.4,309.5,973.4,309.4L973.4,309.4z M976.7,309.4c0,9.3,7.5,16.9,16.8,17c9.3,0,16.9-7.5,17-16.8 c0-9.3-7.5-16.9-16.8-17c-4.5,0-8.7,1.7-11.9,4.9C978.6,300.6,976.8,304.9,976.7,309.4L976.7,309.4L976.7,309.4z M1002.8,320.9H999 l-5.7-10.4h-4.2v10.4h-3.3v-22.5h9.5c4.1,0,8,1.2,8,6c0.1,1.5-0.3,3-1.3,4.2c-1,1.2-2.4,1.9-3.9,2h-0.7L1002.8,320.9L1002.8,320.9z M989.1,301.5v5.7h3.5c3,0,7.2,0.5,7.2-2.6c0-3-2.4-3-5.1-3L989.1,301.5L989.1,301.5z M207.6,292.3c-7.3,7.7-17,12.8-27.5,14.3 c-15.9,1-31.5-8.8-36.2-44.4l-64.3-19c28.1,100.1,105.9,96.6,132.7,53c1.8-2.9,1.3-4.3,0-5C211,290.6,209.4,290.6,207.6,292.3z M207.6,29.5C181.7-22.2,89.9,28.9,74,162.5c-1.3,6.1,1.6,12.4,7.1,15.4c8.1,4.4,17,7.4,26.2,8.7c7,1.7,14.3,2.3,21.5,1.8 c6.5-0.3,11.8-5.1,12.7-11.6C155.2,33.5,188,1,203.2,31.8C204.9,35.4,209.4,33.5,207.6,29.5L207.6,29.5L207.6,29.5z"/><path id="path5822" class="st1" d="M191.7,74.7c-6.4-1-12.9,1.8-16.5,7.3c-3.8,6.8-6.3,14.3-7.3,22.1c-1.7,7.8-2.2,15.9-1.5,23.9 c1.2,4.3,5.1,7.2,9.6,7.2c29.3,1.8,115.3,14.1,127.4,39.1c8,17.2-15.9,21.6-33.6,26.1c-5.9,1.1-10.5,5.7-11.6,11.5 c-2,8.9-0.3,18.2,4.8,25.8c2.2,3.8,7.1,5,10.9,2.8l1-0.7c9.1-6,17.2-13.4,23.9-22.1C356.3,137.6,235.8,75.6,191.7,74.7L191.7,74.7z"/><path id="path5824" class="st2" d="M221.3,206.1c-144.2,15.9-258-50-171.9-66c0,0,11-2.6,13.1-8.8c2.1-6.2,2.7-8,5.1-17.1 c1.5-5.6,2.9-8.8,4.3-13.2c2.3-6.8-2-10.8-11.6-6.1c-78.8,38.5-55.7,110.3,8.5,146.3c42.1,24.6,91.7,32.9,139.5,23.3 c7.9-1.5,14.8-6.3,19-13.2c6.5-9.7,9.3-21.4,8-33.1c0.1-3.6-1.4-7.1-4.2-9.4c-2.7-2.3-6.4-3.3-9.9-2.6V206.1L221.3,206.1z"/></svg>