<?xml version="1.0" encoding="UTF-8"?> <!-- Generator: Adobe Illustrator 23.0.4, SVG Export Plug-In . SVG Version: 6.00 Build 0) --> <svg xmlns="http://www.w3.org/2000/svg" xmlns:xlink="http://www.w3.org/1999/xlink" id="Layer_1" x="0px" y="0px" viewBox="0 0 708.66 239.74" style="enable-background:new 0 0 708.66 239.74;" xml:space="preserve"> <style type="text/css"> .st0{fill-rule:evenodd;clip-rule:evenodd;fill:url(#XMLID_2_);} .st1{fill:#00AEEF;} </style> <g id="XMLID_32_"> <g id="XMLID_33_"> <g id="XMLID_34_"> <g id="XMLID_35_"> <linearGradient id="XMLID_2_" gradientUnits="userSpaceOnUse" x1="354.3307" y1="108.9759" x2="354.3307" y2="0"> <stop offset="0" style="stop-color:#FFFFFF;stop-opacity:0"></stop> <stop offset="0.1557" style="stop-color:#BCE6FB;stop-opacity:0.1557"></stop> <stop offset="0.3239" style="stop-color:#78D2F7;stop-opacity:0.3239"></stop> <stop offset="0.4866" style="stop-color:#16C3F4;stop-opacity:0.4866"></stop> <stop offset="0.6395" style="stop-color:#00B9F1;stop-opacity:0.6395"></stop> <stop offset="0.7804" style="stop-color:#00B2F0;stop-opacity:0.7804"></stop> <stop offset="0.905" style="stop-color:#00AFEF;stop-opacity:0.905"></stop> <stop offset="1" style="stop-color:#00AEEF"></stop> </linearGradient> <path id="XMLID_45_" class="st0" d="M708.66,108.98C616.3,41.43,491.58,0,354.32,0C217.07,0,92.37,41.43,0,108.98H708.66z"></path> <g id="XMLID_36_"> <g id="XMLID_37_"> <path id="XMLID_44_" class="st1" d="M302.7,128.26c-6.61,0-10.01,5.38-10.89,11.96c-0.96,7.26-4.77,32.44-5.62,38.84 c-0.51,3.83-0.79,7.83-4.5,9.48c-3.71,1.65-8.23-0.88-12.06-4.16c-3.86-3.28-60.84-51.91-60.84-51.91 c-3.28-2.87-7.39-4.21-11.31-4.21c-8.6,0-16.87,5.35-16.87,18.44v81.1c0,6.32,4.44,10.36,9.76,10.36 c5.87,0,9.66-3.9,10.5-9.61c0,0,6.27-38.65,7.04-42.95c0.89-5.02,1.67-8.95,6.49-10.44c4.37-1.36,8.5,1.17,14.66,6.57 c6.06,5.3,57.38,51.76,57.38,51.76c3.93,3.33,6.79,4.66,12.35,4.66c5.04,0,14.2-2.06,14.2-17.5v-80.78 C312.98,132.35,308.34,128.26,302.7,128.26z"></path> <path id="XMLID_43_" class="st1" d="M669.79,214.68c-44.71,9.65-95.88-0.66-95.88-32.36c0-23.97,22.17-33.71,39.63-35.12 c18.33-1.47,32.66,2.39,40.03,10.06c4.6,4.79,3.33,11.33-5.72,11.86c-8.32,0.51-23.94,0.99-36.95,1.49 c-7.37,0.28-11.33,4.23-11.33,9.56c0,4.22,3.18,9.06,11.67,9.1c12.17,0.07,43.09,0.25,58.43,0.29 c10.13,0.02,15.13-5.66,15.13-17.34c0-18.5-16.74-46.59-65.7-46.59c-44.36,0-76.47,22.15-76.47,58.35 c0,51.35,75.39,67.01,130.62,47.93c5.24-1.8,9.99-5.56,8.46-11.43C680.38,215.27,676.15,213.29,669.79,214.68z"></path> <path id="XMLID_42_" class="st1" d="M151.03,214.68c-44.72,9.65-95.88-0.66-95.88-32.36c0-23.97,22.16-33.71,39.63-35.12 c18.32-1.47,32.64,2.39,40.03,10.06c4.61,4.79,3.32,11.33-5.72,11.86c-8.33,0.51-23.96,0.99-36.96,1.49 c-7.38,0.28-11.32,4.23-11.32,9.56c0,4.22,3.16,9.06,11.65,9.1c12.18,0.07,43.1,0.25,58.44,0.29 c10.12,0.02,15.12-5.66,15.12-17.34c0-18.5-16.74-46.59-65.7-46.59c-44.35,0-76.46,22.15-76.46,58.35 c0,51.35,75.39,67.01,130.62,47.93c5.23-1.8,9.98-5.56,8.46-11.43C161.61,215.27,157.38,213.29,151.03,214.68z"></path> <g id="XMLID_39_"> <path id="XMLID_41_" class="st1" d="M497.37,165.32c0.98,27.98,3.61,51.21,4.34,59.34c0.96,10.51,6.37,13.5,11.81,13.5 c5.21,0,10.74-2.74,11.7-13.4c0.81-8.98,3.46-36.67,4.75-64.07c0.07-1.43-0.93-2.03-2.06-1.83l-29.1,4.72 C497.95,163.76,497.33,164.47,497.37,165.32z"></path> <path id="XMLID_40_" class="st1" d="M513.61,125.62c-13.37,0-17.26,10.49-17.09,16.92c0.02,1.19,0.15,4.5,0.34,8.62 c0.03,0.93,0.87,1.81,1.99,1.67l30.38-4.94c0.97-0.2,1.43-0.91,1.47-1.67c0.07-1.43,0.12-2.91,0.13-3.59 C531.01,136.42,527.03,125.62,513.61,125.62z"></path> </g> <path id="XMLID_38_" class="st1" d="M468.96,170.26c-10.13,0-41.37,0.24-61.38,0.29c-9.69,0.03-12.12,5.24-12.12,9.57 c0,3.76,2.6,8.62,11.65,9.09c13.8,0.73,31.33,1.55,39.43,1.96c10.91,0.56,11.05,6.18,7.37,11 c-7.4,9.65-25.41,15.98-44.1,15.98c-24.42,0-51.29-13.92-51.29-36c0-20.7,22.99-43.52,91.34-33.89 c6,0.85,11.92-0.23,13.39-5.81c1.57-5.92-2.27-9.73-10.03-11.78c-15.48-4.08-29.6-5.05-43.1-5.05 c-45.99,0-82.87,22.02-82.87,57.58c0,37.96,36.75,56.54,82.56,56.54c51.16,0,76.07-27.91,76.07-52.31 C485.87,175,479.57,170.26,468.96,170.26z"></path> </g> </g> </g> </g> </g> </g> </svg> 