<?xml version="1.0" encoding="utf-8" ?>
<!DOCTYPE svg PUBLIC "-//W3C//DTD SVG 1.1//EN" "http://www.w3.org/Graphics/SVG/1.1/DTD/svg11.dtd">
<svg xmlns="http://www.w3.org/2000/svg" xmlns:xlink="http://www.w3.org/1999/xlink" version="1.1" id="Layer_1" x="0px" y="0px" viewBox="0 0 250 115" style="enable-background:new 0 0 250 115;" xml:space="preserve"><style type="text/css">.st0{fill-rule:evenodd;clip-rule:evenodd;fill:#FFFFFF;} .st1{fill-rule:evenodd;clip-rule:evenodd;fill:#29B582;} .st2{fill-rule:evenodd;clip-rule:evenodd;fill:#00B5C2;} .st3{fill-rule:evenodd;clip-rule:evenodd;fill:#7DBA00;} .st4{fill-rule:evenodd;clip-rule:evenodd;fill:#54B840;} .st5{fill-rule:evenodd;clip-rule:evenodd;fill:#00B8E0;} .st6{fill-rule:evenodd;clip-rule:evenodd;fill:#0399CC;} .st7{fill-rule:evenodd;clip-rule:evenodd;fill:#08338F;} .st8{fill-rule:evenodd;clip-rule:evenodd;fill:#0554A3;} .st9{fill-rule:evenodd;clip-rule:evenodd;fill:#0575B8;}</style><g><polygon class="st0" points="45.5,109.8 44.7,109.8 44,109.7 43.2,109.6 42.5,109.5 41.8,109.4 41.1,109.2 40.4,109 39.7,108.7 39.1,108.5 38.5,108.2 37.9,107.9 37.3,107.5 36.8,107.1 36.3,106.7 35.8,106.3 35.3,105.8 34.8,105.3 34.4,104.8 34,104.3 33.6,103.7 33.2,103.2 32.9,102.6 32.6,102 32.4,101.3 32.1,100.7 31.9,100 31.7,99.3 31.6,98.6 31.5,97.9 31.4,97.1 31.3,96.3 31.3,95.6 31.3,94.8 31.4,94.1 31.4,93.3 31.6,92.6 31.7,91.9 31.9,91.2 32,90.5 32.3,89.9 32.5,89.3 32.8,88.6 33.1,88 33.4,87.5 33.7,86.9 34.1,86.3 34.5,85.8 34.9,85.3 35.4,84.9 35.9,84.4 36.3,84 36.9,83.6 37.4,83.3 38,82.9 38.6,82.6 39.2,82.3 39.8,82.1 40.5,81.9 41.1,81.7 41.9,81.5 42.6,81.4 43.3,81.3 44.1,81.3 44.9,81.2 45.3,81.3 45.8,81.3 46.4,81.3 46.9,81.4 47.4,81.5 47.9,81.6 48.4,81.7 48.9,81.8 49.5,81.9 50,82.1 50.5,82.2 51,82.4 51.5,82.6 51.9,82.7 52.4,82.9 52.8,83.1 51.2,87.2 50.4,86.9 49.7,86.6 48.9,86.3 48.1,86.1 47.7,86 47.3,85.9 46.8,85.8 46.4,85.8 46,85.7 45.6,85.7 45.2,85.7 44.8,85.7 44.3,85.7 43.8,85.7 43.3,85.8 42.9,85.9 42.5,86 42.1,86.1 41.7,86.3 41.3,86.4 40.9,86.6 40.5,86.9 40.2,87.1 39.9,87.3 39.6,87.6 39.3,87.9 39,88.2 38.7,88.5 38.5,88.9 38.3,89.2 38.1,89.6 37.9,89.9 37.7,90.3 37.5,90.7 37.4,91.1 37.2,91.5 37.1,92 37,92.4 37,92.8 36.9,93.3 36.8,93.7 36.8,94.2 36.8,94.6 36.8,95.1 36.8,95.6 36.8,96.2 36.8,96.7 36.9,97.2 37,97.7 37.1,98.2 37.2,98.7 37.4,99.2 37.5,99.6 37.7,100.1 37.9,100.5 38.1,100.9 38.3,101.3 38.6,101.7 38.8,102.1 39.1,102.4 39.4,102.8 39.7,103.1 40.1,103.4 40.4,103.7 40.8,103.9 41.2,104.2 41.6,104.4 42.1,104.6 42.5,104.8 43,104.9 43.4,105 44,105.2 44.5,105.3 45,105.3 45.6,105.3 46.2,105.4 46.5,105.3 46.9,105.3 47.2,105.3 47.6,105.3 47.9,105.2 48.3,105.2 48.6,105.1 49,105 49.3,104.9 49.7,104.8 50,104.7 50.3,104.6 51,104.4 51.6,104.1 52.9,108 52.5,108.2 52,108.4 51.6,108.6 51.2,108.7 50.7,108.9 50.3,109 49.8,109.2 49.3,109.3 48.8,109.4 48.4,109.5 47.9,109.6 47.4,109.7 47,109.7 46.5,109.7 46,109.8"/><path class="st0" d="M63.8,109.8h-0.6l-0.6,0l-0.5-0.1l-0.5-0.1l-0.5-0.1l-0.5-0.1l-0.5-0.2l-0.5-0.2l-0.4-0.2l-0.5-0.2l-0.4-0.2 l-0.4-0.3l-0.4-0.3l-0.4-0.3l-0.3-0.3l-0.3-0.4l-0.3-0.3l-0.3-0.4l-0.3-0.4l-0.3-0.4l-0.3-0.4l-0.2-0.4l-0.2-0.5l-0.2-0.5l-0.2-0.5 l-0.2-0.5l-0.1-0.5l-0.1-0.5l-0.1-0.5l-0.1-0.5l0-0.5v-0.6v-0.6l0-0.6l0.1-0.5l0.1-0.5l0.1-0.5l0.1-0.5l0.2-0.5l0.2-0.5l0.2-0.5 l0.2-0.5l0.2-0.4l0.3-0.4l0.3-0.4l0.3-0.4l0.3-0.4l0.3-0.4l0.3-0.3l0.3-0.3l0.4-0.3l0.4-0.3l0.4-0.3l0.4-0.2l0.5-0.2l0.4-0.2 l0.5-0.2l0.5-0.2l0.5-0.1l0.5-0.1l0.5-0.1l0.5-0.1l0.6,0l0.6,0l0.6,0l0.6,0l0.5,0.1l0.5,0.1l0.5,0.1l0.5,0.1l0.5,0.2l0.5,0.2 l0.5,0.2l0.4,0.2l0.4,0.3l0.4,0.3l0.4,0.3l0.4,0.3l0.4,0.3l0.3,0.3l0.3,0.4l0.3,0.4l0.3,0.4l0.3,0.4l0.2,0.4l0.2,0.4l0.2,0.5 l0.2,0.5l0.2,0.5l0.2,0.5l0.1,0.5l0.1,0.5l0.1,0.5l0.1,0.5l0,0.6l0,0.6l0,0.6l0,0.6l-0.1,0.5l-0.1,0.5l-0.1,0.5l-0.1,0.5l-0.2,0.5 l-0.2,0.5l-0.2,0.5l-0.2,0.5l-0.2,0.4l-0.2,0.4l-0.3,0.4l-0.3,0.4l-0.3,0.4l-0.3,0.4l-0.3,0.3l-0.4,0.3l-0.4,0.3l-0.4,0.3l-0.4,0.3 l-0.4,0.3l-0.4,0.2L68,109l-0.5,0.2l-0.5,0.2l-0.5,0.1l-0.5,0.1l-0.5,0.1l-0.5,0.1l-0.6,0C64.4,109.8,63.8,109.8,63.8,109.8z M63.8,92.9h-0.3l-0.3,0l-0.3,0L62.6,93l-0.3,0.1L62,93.2l-0.3,0.1l-0.2,0.1l-0.2,0.1l-0.2,0.2l-0.2,0.2l-0.2,0.2l-0.2,0.2 l-0.2,0.2l-0.1,0.2l-0.2,0.2l-0.1,0.2l-0.1,0.2l-0.1,0.3l-0.1,0.3l-0.1,0.3l-0.1,0.3l-0.1,0.3L59.3,97l-0.1,0.6l-0.1,0.6l0,0.6 l0,0.6l0,0.6l0,0.6l0.1,0.6l0.1,0.6l0.1,0.3l0.1,0.3l0.1,0.3l0.1,0.3l0.1,0.3l0.1,0.2l0.1,0.2l0.1,0.2l0.2,0.2l0.1,0.2l0.2,0.2 l0.2,0.2l0.2,0.2l0.2,0.2l0.2,0.1l0.2,0.1l0.2,0.1l0.3,0.1l0.3,0.1l0.3,0.1l0.3,0.1l0.3,0l0.3,0h0.3h0.3l0.3,0l0.3,0l0.3-0.1 l0.3-0.1l0.3-0.1l0.3-0.1l0.2-0.1l0.2-0.1l0.2-0.1l0.2-0.2l0.2-0.2l0.2-0.2l0.2-0.2l0.1-0.2l0.2-0.2l0.1-0.2l0.1-0.2l0.1-0.2 l0.1-0.3l0.1-0.3l0.1-0.3l0.1-0.3l0.1-0.3l0.1-0.6l0.1-0.6l0-0.6l0-0.6l0-0.6l0-0.6l-0.1-0.6L68.4,97l-0.1-0.3l-0.1-0.3l-0.1-0.3 L68,95.9l-0.1-0.2l-0.1-0.3l-0.1-0.2l-0.1-0.2l-0.2-0.2l-0.1-0.2l-0.2-0.2l-0.2-0.2l-0.2-0.2l-0.2-0.2l-0.2-0.2l-0.2-0.1l-0.2-0.1 l-0.3-0.1l-0.3-0.1L65.1,93L64.8,93l-0.3,0l-0.3,0H63.8z"/><polygon class="st0" points="89.9,109.4 89.9,96.6 89.9,96.4 89.8,96.2 89.8,96 89.8,95.8 89.7,95.6 89.7,95.4 89.6,95.2 89.6,95 89.5,94.8 89.4,94.7 89.3,94.5 89.2,94.4 89.1,94.3 89,94.1 88.9,94 88.8,93.9 88.5,93.6 88.2,93.5 87.8,93.3 87.5,93.2 87.1,93.1 86.7,93 86.3,92.9 85.8,92.9 85.3,92.9 84.8,93 84.3,93.1 83.8,93.2 83.3,93.3 82.7,93.5 82.2,93.6 81.8,93.8 81.8,93.9 81.8,94.1 81.8,94.4 81.8,94.7 81.8,109.4 77,109.4 77,93.5 77,93.1 76.9,92.7 76.9,92.2 76.8,91.7 76.7,91 76.7,90.7 77.8,90.3 78.9,89.9 79.5,89.8 80,89.6 80.6,89.4 81.2,89.3 81.8,89.2 82.4,89 83,88.9 83.6,88.8 84.2,88.8 84.8,88.7 85.3,88.7 85.9,88.7 86.4,88.7 86.8,88.7 87.3,88.7 87.7,88.7 88.1,88.8 88.5,88.9 89,88.9 89.4,89 89.7,89.1 90.1,89.2 90.5,89.3 90.9,89.5 91.2,89.6 91.5,89.8 91.9,90 92.2,90.2 92.4,90.4 92.7,90.6 93,90.9 93.2,91.1 93.5,91.4 93.7,91.7 93.9,92.1 94,92.4 94.2,92.7 94.3,93.1 94.4,93.5 94.5,94 94.6,94.4 94.7,94.9 94.7,95.4 94.7,95.9 94.7,109.4"/><polygon class="st0" points="106,110.1 105.6,110.1 105.3,110.1 104.9,110.1 104.6,110 104.3,110 104,109.9 103.7,109.9 103.4,109.8 103.1,109.7 102.9,109.6 102.6,109.5 102.4,109.4 102.1,109.2 101.9,109.1 101.7,108.9 101.4,108.8 101.2,108.6 101.1,108.4 100.9,108.2 100.7,108 100.6,107.8 100.4,107.5 100.3,107.3 100.2,107 100.1,106.7 100,106.5 99.9,106.2 99.8,105.8 99.8,105.5 99.7,105.2 99.7,104.8 99.7,104.5 99.7,93.3 97.4,93.2 97.4,89.3 99.7,89.2 99.7,83.6 104.6,83.6 104.6,89.1 110.3,89.1 110.3,93.3 104.6,93.3 104.6,104.1 104.6,104.3 104.6,104.6 104.6,104.7 104.7,104.9 104.8,105.1 104.8,105.2 104.9,105.3 105,105.4 105.2,105.6 105.3,105.6 105.5,105.7 105.7,105.8 105.8,105.8 106,105.8 106.2,105.9 106.4,105.9 106.9,105.8 107.4,105.8 107.8,105.7 108.3,105.6 108.7,105.5 109.2,105.3 109.6,105.2 110,105 111.4,109 110.7,109.2 110.1,109.4 109.4,109.6 108.7,109.8 108,109.9 107.4,110 107,110 106.7,110.1 106.3,110.1"/><polygon class="st0" points="124.8,93.3 124.5,93.2 124.2,93.1 123.9,93.1 123.5,93 123.1,93 122.8,92.9 122.4,92.9 122.1,92.9 121.6,92.9 121.2,92.9 120.7,92.9 120.2,93 119.8,93.1 119.3,93.2 118.9,93.3 118.4,93.4 118.5,93.6 118.5,93.8 118.5,109.4 113.6,109.4 113.6,93.9 113.6,93.5 113.6,93 113.5,92.5 113.4,92 113.4,91.6 113.3,91.2 113.3,91 113.2,90.9 114.4,90.5 115.5,90 116,89.8 116.6,89.7 117.2,89.5 117.8,89.3 118.4,89.2 118.9,89 119.5,88.9 120.1,88.8 120.7,88.8 121.3,88.7 121.9,88.7 122.5,88.7 123,88.7 123.4,88.7 123.9,88.7 124.4,88.8 124.9,88.8 125.4,88.9 125.8,89 126.2,89.1"/><path class="st0" d="M136.2,109.8h-0.6l-0.6,0l-0.5-0.1l-0.5-0.1l-0.5-0.1l-0.5-0.1l-0.5-0.2L132,109l-0.4-0.2l-0.5-0.2l-0.4-0.2 l-0.4-0.3l-0.4-0.3l-0.4-0.3l-0.4-0.3l-0.3-0.4l-0.3-0.3l-0.3-0.4l-0.3-0.4l-0.3-0.4l-0.2-0.4l-0.2-0.4l-0.2-0.5l-0.2-0.5l-0.2-0.5 l-0.1-0.5l-0.1-0.5l-0.1-0.5l-0.1-0.5l-0.1-0.5l0-0.5l0-0.6l0-0.6l0-0.6l0.1-0.5l0.1-0.5l0.1-0.5l0.1-0.5l0.1-0.5l0.2-0.5l0.2-0.5 l0.2-0.5l0.2-0.4l0.2-0.4l0.3-0.4l0.3-0.4l0.3-0.4l0.3-0.4l0.3-0.3l0.4-0.3l0.4-0.3l0.4-0.3l0.4-0.3l0.4-0.2l0.5-0.2l0.4-0.2 l0.5-0.2l0.5-0.2l0.5-0.1l0.5-0.1l0.5-0.1l0.5-0.1l0.6,0l0.6,0l0.6,0l0.6,0l0.6,0.1l0.5,0.1l0.5,0.1l0.5,0.1l0.5,0.2l0.5,0.2 l0.5,0.2l0.4,0.2l0.4,0.3l0.4,0.3l0.4,0.3l0.4,0.3l0.4,0.3l0.3,0.3l0.3,0.4l0.3,0.4l0.3,0.4l0.3,0.4l0.2,0.4l0.2,0.4l0.2,0.5 l0.2,0.5l0.2,0.5l0.1,0.5l0.1,0.5l0.1,0.5l0.1,0.5l0,0.5l0,0.6l0,0.6l0,0.6l0,0.6l0,0.5l-0.1,0.5l-0.1,0.5l-0.1,0.5l-0.1,0.5 l-0.2,0.5l-0.2,0.5l-0.2,0.5l-0.2,0.4l-0.2,0.4l-0.3,0.4l-0.3,0.4l-0.3,0.4l-0.3,0.4l-0.3,0.3l-0.4,0.3l-0.4,0.3l-0.4,0.3l-0.4,0.3 l-0.4,0.3l-0.4,0.2l-0.5,0.2l-0.5,0.2l-0.5,0.2l-0.5,0.1l-0.5,0.1l-0.5,0.1l-0.6,0.1l-0.6,0L136.2,109.8L136.2,109.8z M136.2,92.9 h-0.3l-0.3,0l-0.3,0l-0.3,0.1l-0.3,0.1l-0.3,0.1l-0.2,0.1l-0.2,0.1l-0.2,0.1l-0.2,0.2l-0.2,0.2l-0.2,0.2l-0.2,0.2l-0.2,0.2 l-0.2,0.2l-0.1,0.2l-0.2,0.2l-0.1,0.2l-0.1,0.3l-0.1,0.2l-0.1,0.3l-0.1,0.3l-0.1,0.3l-0.1,0.3l-0.1,0.6l-0.1,0.6l0,0.6l0,0.6l0,0.6 l0,0.6l0.1,0.6l0.1,0.6l0.1,0.3l0.1,0.3l0.1,0.3l0.1,0.3l0.1,0.3l0.1,0.2l0.1,0.2l0.2,0.2l0.1,0.2l0.2,0.2l0.2,0.2l0.2,0.2l0.2,0.2 l0.2,0.2l0.2,0.1l0.2,0.1l0.2,0.1l0.2,0.1l0.3,0.1l0.3,0.1l0.3,0.1l0.3,0l0.3,0h0.3h0.3l0.3,0l0.3,0l0.3-0.1l0.3-0.1l0.3-0.1 l0.2-0.1l0.2-0.1l0.2-0.1l0.2-0.1l0.2-0.2l0.2-0.2l0.2-0.2l0.2-0.2l0.2-0.2l0.1-0.2l0.1-0.2l0.1-0.2l0.1-0.2l0.1-0.3l0.1-0.3 l0.1-0.3l0.1-0.3l0.1-0.3l0.1-0.6l0.1-0.6l0-0.6v-0.6v-0.6l0-0.6l-0.1-0.6l-0.1-0.6l-0.1-0.3l-0.1-0.3l-0.1-0.3l-0.1-0.3l-0.1-0.2 l-0.1-0.3l-0.1-0.2l-0.1-0.2l-0.1-0.2l-0.2-0.2l-0.2-0.2l-0.2-0.2l-0.2-0.2l-0.2-0.2l-0.2-0.2l-0.2-0.1l-0.2-0.1l-0.2-0.1l-0.3-0.1 l-0.3-0.1l-0.3-0.1l-0.3,0l-0.3,0L136.2,92.9L136.2,92.9z"/><polygon class="st0" points="154.2,79.6 149.3,79.6 149.3,100.5 149.3,109.4 154.2,109.4"/><polygon class="st0" points="163.6,109.8 163.2,109.8 162.7,109.8 162.3,109.8 161.9,109.7 161.5,109.7 161,109.6 160.6,109.5 160.2,109.4 159.3,109.3 158.5,109 157.7,108.8 156.9,108.5 158.3,104.7 158.9,104.9 159.5,105.1 160.1,105.3 160.7,105.5 161.4,105.7 162,105.8 162.3,105.8 162.6,105.9 162.9,105.9 163.2,105.9 163.5,105.9 163.8,105.9 164,105.8 164.3,105.8 164.6,105.7 164.8,105.7 165.1,105.6 165.3,105.4 165.5,105.3 165.7,105.1 165.9,105 166,104.8 166.1,104.5 166.2,104.3 166.3,104 166.3,103.7 166.3,103.4 166.2,103.1 166.1,102.8 165.9,102.5 165.7,102.3 165.5,102.1 165.2,101.9 164.9,101.6 164.6,101.5 164.2,101.3 163.9,101.1 163.5,100.9 162.7,100.6 161.9,100.2 161.5,100 161,99.8 160.6,99.6 160.2,99.4 159.9,99.1 159.5,98.9 159.1,98.6 158.8,98.2 158.5,97.9 158.3,97.5 158,97.1 157.8,96.7 157.7,96.2 157.5,95.7 157.5,95.1 157.4,94.5 157.5,94.1 157.5,93.7 157.6,93.4 157.6,93.1 157.7,92.7 157.8,92.4 158,92.1 158.2,91.8 158.3,91.5 158.6,91.3 158.8,91.1 159,90.8 159.2,90.6 159.5,90.4 159.7,90.2 160,90 160.3,89.9 160.6,89.7 160.9,89.6 161.2,89.4 161.5,89.3 161.8,89.2 162.1,89.1 162.4,89 162.7,88.9 163.1,88.8 163.4,88.8 163.7,88.7 164,88.7 164.3,88.7 164.6,88.7 164.9,88.7 165.4,88.7 165.8,88.7 166.1,88.7 166.6,88.7 167,88.8 167.3,88.9 167.7,88.9 168.1,89 168.5,89.1 168.8,89.2 169.2,89.3 169.5,89.4 169.8,89.5 170.2,89.6 170.5,89.7 170.8,89.9 169.4,93.6 168.9,93.5 168.4,93.3 167.8,93.1 167.2,93 166.6,92.9 166.1,92.8 165.5,92.7 164.9,92.7 164.7,92.7 164.5,92.7 164.3,92.7 164,92.8 163.8,92.8 163.6,92.9 163.4,93 163.2,93.1 163.1,93.2 162.9,93.3 162.8,93.5 162.7,93.6 162.6,93.8 162.5,94 162.5,94.3 162.4,94.6 162.5,94.8 162.6,95.1 162.7,95.4 162.8,95.6 163,95.8 163.3,96 163.6,96.2 163.9,96.4 164.2,96.6 164.6,96.7 165,96.9 165.4,97 166.2,97.3 167.1,97.7 167.5,97.9 167.9,98 168.3,98.3 168.8,98.5 169.2,98.8 169.5,99 169.9,99.4 170.2,99.7 170.6,100.1 170.8,100.5 171.1,100.9 171.3,101.4 171.4,101.9 171.6,102.5 171.6,103.1 171.7,103.7 171.7,104.2 171.6,104.6 171.6,104.9 171.5,105.3 171.4,105.7 171.3,106 171.1,106.3 170.9,106.6 170.8,106.9 170.6,107.2 170.3,107.4 170.1,107.7 169.8,107.9 169.6,108.1 169.3,108.3 169,108.5 168.7,108.7 168.4,108.8 168.1,109 167.8,109.1 167.5,109.2 167.1,109.3 166.8,109.4 166.4,109.5 166.1,109.6 165.7,109.7 165.4,109.7 165,109.7 164.7,109.8 164.3,109.8 164,109.8"/><polygon class="st0" points="10.3,75.4 9.9,75.6 9.4,75.7 8.8,75.9 8.3,76.1 7.7,76.2 7.1,76.4 6.5,76.5 5.9,76.7 5,72.3 5.4,72.3 5.8,72.2 6.2,72.1 6.6,72 7,71.9 7.3,71.8 7.7,71.7 8,71.6 8.3,71.5 8.5,71.4 8.8,71.3 9,71.2 9.2,71.1 9.3,70.9 9.5,70.8 9.7,70.7 9.8,70.5 10,70.4 10.1,70.2 10.2,70 10.3,69.9 10.4,69.7 10.5,69.5 10.6,69.3 10.7,68.9 10.8,68.5 10.9,68 11,67.5 11,67 11.1,66.5 11.1,65.9 11.1,65.3 11.1,44.7 16.1,44.7 16.1,64.5 16.1,65.6 16.1,66.5 16,67.4 15.9,68.3 15.8,68.7 15.8,69.1 15.7,69.5 15.6,69.9 15.5,70.3 15.4,70.7 15.2,71 15.1,71.4 14.9,71.7 14.8,72 14.6,72.3 14.3,72.7 14.1,72.9 13.9,73.2 13.6,73.5 13.3,73.7 13,74 12.7,74.2 12.4,74.5 12,74.7 11.6,74.9 11.2,75.1 10.8,75.3"/><path class="st0" d="M29.3,72.6h-0.6l-0.6,0l-0.5-0.1l-0.5-0.1l-0.5-0.1l-0.5-0.1L25.6,72l-0.5-0.2l-0.5-0.2l-0.4-0.2l-0.4-0.3 l-0.4-0.3L23,70.5l-0.4-0.3l-0.4-0.3l-0.3-0.3l-0.3-0.4l-0.3-0.4L21,68.4L20.7,68l-0.2-0.4l-0.2-0.4L20,66.7l-0.2-0.5l-0.2-0.5 l-0.1-0.5l-0.1-0.5l-0.1-0.5l-0.1-0.5l-0.1-0.5l0-0.5V62v-0.6l0-0.6l0.1-0.5l0.1-0.5l0.1-0.5l0.1-0.5l0.1-0.5l0.2-0.5l0.2-0.5 l0.2-0.5l0.2-0.4l0.2-0.4l0.3-0.4l0.3-0.4l0.3-0.4l0.3-0.4l0.3-0.4l0.4-0.3l0.4-0.3l0.4-0.3l0.4-0.3l0.4-0.3l0.4-0.2l0.5-0.2 l0.5-0.2l0.5-0.2l0.5-0.2l0.5-0.1l0.5-0.1l0.5-0.1l0.6,0l0.6,0l0.6,0l0.6,0l0.6,0.1l0.5,0.1l0.5,0.1l0.5,0.2l0.5,0.2l0.5,0.2 l0.4,0.2l0.4,0.2l0.4,0.2l0.4,0.3l0.4,0.3l0.4,0.3l0.4,0.3l0.3,0.3l0.3,0.3l0.3,0.4l0.3,0.4l0.3,0.4l0.2,0.4l0.2,0.4l0.2,0.5 l0.2,0.5l0.2,0.5l0.2,0.5l0.1,0.5l0.1,0.5l0.1,0.5l0,0.5l0,0.5l0,0.6l0,0.6l0,0.5l0,0.6l-0.1,0.5l-0.1,0.5l-0.1,0.5l-0.2,0.5 l-0.2,0.5l-0.2,0.5l-0.2,0.5l-0.2,0.4L37.9,68l-0.3,0.4l-0.3,0.4l-0.3,0.4l-0.3,0.3l-0.3,0.3L36,70.3l-0.4,0.3l-0.4,0.3l-0.4,0.3 l-0.4,0.2L34,71.6l-0.4,0.2L33,72l-0.5,0.1L32,72.3l-0.5,0.1L31,72.5l-0.6,0.1l-0.6,0L29.3,72.6L29.3,72.6z M29.3,55.7H29l-0.3,0 l-0.3,0l-0.3,0.1l-0.3,0.1L27.5,56l-0.3,0.1l-0.2,0.1l-0.2,0.1l-0.2,0.2l-0.2,0.2l-0.2,0.2L26,57.1l-0.2,0.2l-0.1,0.2l-0.2,0.2 l-0.1,0.2l-0.1,0.2l-0.1,0.3l-0.1,0.3L25,58.9l-0.1,0.3l-0.1,0.3l-0.1,0.3l-0.1,0.6l-0.1,0.6l0,0.6l0,0.6l0,0.6l0,0.6l0.1,0.6 l0.1,0.6l0.1,0.3l0.1,0.3l0.1,0.3l0.1,0.3l0.1,0.3l0.1,0.2l0.1,0.2l0.1,0.2l0.2,0.2l0.1,0.2L26,67l0.2,0.2l0.2,0.2l0.2,0.2l0.2,0.1 l0.2,0.1l0.2,0.1l0.3,0.1l0.3,0.1l0.3,0.1l0.3,0.1l0.3,0l0.3,0l0.3,0l0.3,0l0.3,0l0.3,0l0.3-0.1l0.3-0.1l0.3-0.1l0.2-0.1l0.2-0.1 l0.2-0.1l0.2-0.1l0.2-0.2l0.2-0.2l0.2-0.2l0.2-0.2l0.2-0.2l0.2-0.2l0.1-0.2l0.1-0.2l0.1-0.2l0.1-0.3l0.1-0.3l0.1-0.3l0.1-0.3 l0.1-0.3l0.1-0.6l0.1-0.6l0-0.6l0-0.6l0-0.6l0-0.6L34,60.4l-0.1-0.6l-0.1-0.3l-0.1-0.3L33.6,59l-0.1-0.3l-0.1-0.2l-0.1-0.3 l-0.1-0.2l-0.1-0.2l-0.2-0.2l-0.2-0.2l-0.2-0.2l-0.2-0.2l-0.2-0.2L32,56.5l-0.2-0.2l-0.2-0.1l-0.2-0.1L31.1,56l-0.3-0.1l-0.3-0.1 l-0.3-0.1l-0.3,0l-0.3,0H29.3z"/><polygon class="st0" points="55.6,72.1 55.6,59.3 55.6,58.9 55.5,58.6 55.5,58.2 55.3,57.8 55.2,57.5 55,57.2 54.9,56.9 54.7,56.7 54.4,56.4 54.2,56.2 53.9,56.1 53.6,55.9 53.3,55.8 52.9,55.7 52.6,55.7 52.2,55.7 51.9,55.7 51.6,55.7 51.3,55.7 51,55.8 50.7,55.8 50.4,55.9 50.1,56 49.8,56.1 49.2,56.3 48.6,56.6 48,56.9 47.5,57.1 47.5,72.1 42.7,72.1 42.6,42.4 47.5,42.4 47.5,52.8 48.2,52.5 49,52.2 49.7,52 50.4,51.8 50.8,51.7 51.2,51.7 51.6,51.6 52,51.5 52.4,51.5 52.7,51.5 53.1,51.5 53.5,51.4 53.9,51.5 54.3,51.5 54.7,51.5 55.1,51.6 55.5,51.6 55.8,51.7 56.2,51.8 56.5,51.9 56.8,52.1 57.1,52.2 57.4,52.4 57.7,52.5 58,52.7 58.2,52.9 58.5,53.1 58.7,53.3 58.9,53.6 59.1,53.8 59.3,54.1 59.5,54.4 59.6,54.6 59.8,54.9 59.9,55.3 60,55.6 60.1,55.9 60.2,56.3 60.3,56.6 60.3,57 60.4,57.4 60.4,57.8 60.4,58.2 60.5,58.6 60.5,72.1"/><polygon class="st0" points="77.5,72.1 77.5,59.4 77.4,59 77.4,58.6 77.4,58.4 77.3,58.2 77.2,58 77.2,57.8 77.1,57.6 77,57.5 76.9,57.3 76.8,57.2 76.7,57 76.6,56.9 76.5,56.7 76.4,56.6 76.2,56.5 76.1,56.4 75.9,56.3 75.8,56.2 75.4,56.1 75.1,55.9 74.7,55.8 74.3,55.8 73.9,55.7 73.5,55.7 72.9,55.7 72.4,55.8 71.9,55.8 71.4,56 70.9,56.1 70.4,56.2 69.9,56.4 69.4,56.6 69.4,56.7 69.4,56.9 69.4,57.2 69.5,57.4 69.5,72.1 64.6,72.1 64.6,56.3 64.6,55.9 64.5,55.4 64.5,55 64.4,54.5 64.3,53.8 64.3,53.5 65.4,53.1 66.5,52.7 67.7,52.4 68.8,52.1 69.4,51.9 70,51.8 70.6,51.7 71.2,51.6 71.8,51.5 72.4,51.5 72.9,51.5 73.5,51.5 74,51.5 74.4,51.5 74.9,51.5 75.3,51.5 75.7,51.6 76.2,51.6 76.6,51.7 77,51.8 77.4,51.9 77.8,52 78.1,52.1 78.5,52.2 78.8,52.4 79.2,52.6 79.5,52.7 79.8,53 80.1,53.2 80.3,53.4 80.6,53.6 80.9,53.9 81.1,54.2 81.3,54.5 81.5,54.8 81.7,55.2 81.8,55.5 81.9,55.9 82.1,56.3 82.2,56.7 82.2,57.2 82.3,57.7 82.3,58.1 82.3,58.7 82.3,72.1"/><polygon class="st0" points="91.9,72.6 91.4,72.6 91,72.6 90.5,72.5 90.1,72.5 89.7,72.4 89.2,72.4 88.8,72.3 88.4,72.2 87.5,72 86.7,71.8 85.9,71.5 85.1,71.3 86.6,67.5 87.1,67.7 87.7,67.9 88.3,68.1 89,68.3 89.6,68.4 90.2,68.6 90.5,68.6 90.8,68.6 91.1,68.7 91.4,68.7 91.7,68.7 92,68.7 92.3,68.6 92.6,68.6 92.8,68.5 93.1,68.4 93.3,68.3 93.5,68.2 93.8,68.1 93.9,67.9 94.1,67.8 94.2,67.5 94.4,67.3 94.4,67.1 94.5,66.8 94.5,66.5 94.5,66.1 94.4,65.8 94.3,65.6 94.1,65.3 93.9,65 93.7,64.8 93.4,64.6 93.1,64.4 92.8,64.2 92.5,64.1 92.1,63.9 91.7,63.7 90.9,63.4 90.1,63 89.7,62.8 89.3,62.6 88.9,62.4 88.5,62.1 88.1,61.9 87.7,61.6 87.4,61.3 87,61 86.7,60.7 86.5,60.3 86.3,59.9 86.1,59.4 85.9,58.9 85.8,58.4 85.7,57.9 85.7,57.3 85.7,56.9 85.7,56.5 85.8,56.2 85.9,55.8 86,55.5 86.1,55.2 86.2,54.9 86.4,54.6 86.6,54.3 86.8,54.1 87,53.8 87.2,53.6 87.4,53.4 87.7,53.2 87.9,53 88.2,52.8 88.5,52.6 88.8,52.5 89.1,52.3 89.4,52.2 89.7,52.1 90,52 90.3,51.9 90.7,51.8 91,51.7 91.3,51.6 91.6,51.6 91.9,51.5 92.6,51.5 93.2,51.4 93.6,51.5 94,51.5 94.4,51.5 94.8,51.5 95.2,51.6 95.6,51.6 95.9,51.7 96.3,51.8 97.1,52 97.8,52.2 98.1,52.3 98.4,52.4 98.7,52.5 99,52.7 97.6,56.4 97.1,56.2 96.6,56.1 96,55.9 95.4,55.8 94.8,55.7 94.3,55.6 93.7,55.5 93.2,55.5 92.9,55.5 92.7,55.5 92.5,55.5 92.3,55.6 92,55.6 91.9,55.7 91.7,55.8 91.5,55.8 91.3,56 91.1,56.1 91,56.2 90.9,56.4 90.8,56.6 90.7,56.8 90.7,57 90.7,57.3 90.7,57.6 90.8,57.9 90.9,58.2 91.1,58.4 91.3,58.6 91.5,58.8 91.8,59 92.1,59.2 92.4,59.3 92.8,59.5 93.2,59.6 93.6,59.8 94.4,60.1 95.3,60.4 95.7,60.6 96.2,60.8 96.6,61 97,61.3 97.4,61.5 97.8,61.8 98.1,62.1 98.5,62.5 98.8,62.8 99,63.2 99.3,63.7 99.5,64.2 99.7,64.7 99.8,65.3 99.9,65.9 99.9,66.5 99.9,66.9 99.9,67.3 99.8,67.7 99.7,68.1 99.6,68.4 99.5,68.7 99.3,69.1 99.2,69.4 99,69.6 98.8,69.9 98.6,70.2 98.3,70.4 98.1,70.6 97.8,70.9 97.5,71.1 97.2,71.2 96.9,71.4 96.7,71.6 96.3,71.7 96,71.9 95.7,72 95.3,72.1 95,72.2 94.7,72.3 94.3,72.4 93.9,72.4 93.6,72.5 93.2,72.5 92.9,72.6 92.5,72.6 92.2,72.6"/><path class="st0" d="M112.2,72.6l-0.6,0l-0.6,0l-0.6-0.1l-0.5-0.1l-0.5-0.1l-0.5-0.1l-0.5-0.1l-0.5-0.2l-0.5-0.2l-0.4-0.2l-0.4-0.3 l-0.4-0.3l-0.4-0.3l-0.4-0.3l-0.4-0.3l-0.3-0.4l-0.3-0.4l-0.3-0.4l-0.3-0.4l-0.3-0.4l-0.2-0.4l-0.2-0.4l-0.2-0.5l-0.2-0.5l-0.2-0.5 l-0.2-0.5l-0.1-0.5l-0.1-0.5l-0.1-0.5l0-0.5l0-0.5l0-0.6l0-0.6l0-0.6l0-0.5l0.1-0.5l0.1-0.5l0.1-0.5l0.2-0.5l0.2-0.5l0.2-0.5 l0.2-0.4l0.2-0.5l0.2-0.4l0.3-0.4l0.3-0.4l0.3-0.4l0.3-0.4l0.3-0.3l0.4-0.3l0.4-0.3l0.4-0.3l0.4-0.3l0.4-0.3l0.4-0.2l0.5-0.2 l0.5-0.2l0.5-0.2l0.5-0.1l0.5-0.1l0.5-0.1l0.6-0.1l0.6,0l0.6,0l0.6,0l0.6,0l0.5,0.1l0.5,0.1l0.5,0.1l0.5,0.2l0.5,0.2l0.5,0.2 l0.5,0.2l0.4,0.2l0.4,0.2l0.4,0.3l0.4,0.3l0.4,0.3l0.4,0.3l0.3,0.3l0.3,0.3l0.3,0.4l0.3,0.4l0.3,0.4l0.3,0.4l0.2,0.4l0.2,0.5 l0.2,0.5l0.2,0.5l0.1,0.5l0.1,0.5l0.1,0.5l0.1,0.5l0,0.5l0,0.5V62v0.6l0,0.5l0,0.6l-0.1,0.5l-0.1,0.5l-0.1,0.5l-0.1,0.5l-0.2,0.5 l-0.2,0.5l-0.2,0.5l-0.2,0.4l-0.3,0.4l-0.3,0.4l-0.3,0.4l-0.3,0.4l-0.3,0.3l-0.3,0.3l-0.4,0.3l-0.4,0.3l-0.4,0.3l-0.4,0.3l-0.4,0.2 l-0.4,0.2l-0.5,0.2L116,72l-0.5,0.1l-0.5,0.1l-0.5,0.1l-0.5,0.1l-0.5,0.1l-0.6,0L112.2,72.6z M112.2,55.7h-0.3l-0.3,0l-0.3,0 l-0.3,0.1l-0.3,0.1l-0.3,0.1l-0.2,0.1l-0.2,0.1l-0.2,0.1l-0.2,0.2l-0.2,0.2l-0.2,0.2l-0.2,0.2l-0.1,0.2l-0.2,0.2l-0.1,0.2l-0.2,0.2 l-0.1,0.2l-0.1,0.3l-0.1,0.3l-0.1,0.3l-0.1,0.3l-0.1,0.3l-0.1,0.3l-0.1,0.6l-0.1,0.6l0,0.6l0,0.6l0,0.6l0,0.6l0.1,0.6l0.1,0.6 l0.1,0.3l0.1,0.3l0.1,0.3l0.1,0.3l0.1,0.3l0.1,0.2l0.1,0.2l0.1,0.2l0.2,0.2l0.2,0.2L109,67l0.2,0.2l0.2,0.2l0.2,0.2l0.2,0.1 l0.2,0.1l0.2,0.1l0.2,0.1l0.3,0.1l0.3,0.1l0.3,0.1l0.3,0l0.3,0l0.3,0l0.3,0l0.3,0l0.3,0l0.3-0.1l0.3-0.1l0.3-0.1l0.2-0.1l0.2-0.1 l0.2-0.1l0.2-0.1l0.2-0.2l0.2-0.2l0.2-0.2l0.2-0.2l0.2-0.2l0.1-0.2l0.2-0.2l0.1-0.2l0.1-0.2l0.1-0.3l0.1-0.3l0.1-0.3l0.1-0.3 l0.1-0.3l0.1-0.6l0.1-0.6l0-0.6l0-0.6l0-0.6l0-0.6l-0.1-0.6l-0.1-0.6l-0.1-0.3l-0.1-0.3l-0.1-0.3l-0.1-0.3l-0.1-0.2l-0.1-0.3 l-0.1-0.2l-0.2-0.2l-0.1-0.2l-0.2-0.2l-0.2-0.2l-0.2-0.2l-0.2-0.2l-0.2-0.2l-0.2-0.2l-0.2-0.1l-0.2-0.1L114,56l-0.3-0.1l-0.3-0.1 l-0.3-0.1l-0.3,0l-0.3,0H112.2z"/><polygon class="st0" points="138.5,72.1 138.5,59.4 138.5,59 138.4,58.6 138.4,58.4 138.3,58.2 138.3,58 138.2,57.8 138.1,57.6 138,57.5 137.9,57.3 137.8,57.2 137.7,57 137.6,56.9 137.5,56.7 137.4,56.6 137.2,56.5 137.1,56.4 136.9,56.3 136.8,56.2 136.5,56.1 136.1,55.9 135.7,55.8 135.3,55.8 134.9,55.7 134.5,55.7 134,55.7 133.4,55.8 132.9,55.8 132.4,56 131.9,56.1 131.4,56.2 130.9,56.4 130.4,56.6 130.4,56.7 130.4,56.9 130.4,57.2 130.5,57.4 130.5,72.1 125.6,72.1 125.6,56.3 125.6,55.9 125.6,55.4 125.5,55 125.5,54.5 125.4,53.8 125.3,53.5 126.4,53.1 127.5,52.7 128.7,52.4 129.8,52.1 130.4,51.9 131,51.8 131.6,51.7 132.2,51.6 132.8,51.5 133.4,51.5 134,51.5 134.5,51.4 135,51.5 135.4,51.5 135.9,51.5 136.3,51.5 136.7,51.6 137.1,51.6 137.6,51.7 138,51.8 138.4,51.9 138.7,52 139.1,52.1 139.5,52.3 139.8,52.4 140.2,52.6 140.5,52.7 140.8,53 141.1,53.2 141.3,53.4 141.6,53.6 141.8,53.9 142.1,54.2 142.3,54.5 142.5,54.8 142.7,55.2 142.8,55.5 143,55.9 143.1,56.3 143.2,56.7 143.3,57.2 143.3,57.7 143.3,58.1 143.3,58.7 143.3,72.1"/><polygon class="st1" points="234.3,16.2 233.9,15.8 233.5,15.4 233,15 232.6,14.6 231.5,15.2 230.5,15.7 229.4,16.3 228.4,16.9 227.4,17.5 226.4,18.1 225.4,18.7 224.5,19.4 223.6,20 222.7,20.7 221.9,21.4 221.1,22.1 220.3,22.8 219.5,23.6 218.7,24.3 218,25.1 218.2,26.3 218.4,27.5 218.5,28.8 218.6,30 218.8,31.2 218.8,32.5 218.9,33.8 219,35 219,36.1 219.1,37.2 219.1,38.3 219.1,39.4 219.1,40.4 219,41.4 219,42.5 219,43.5 218.9,44.5 218.8,45.5 218.8,46.5 218.7,47.5 218.6,48.4 218.4,49.4 218.3,50.3 218.1,51.3 218,52.2 217.8,53.1 217.7,54 217.5,54.9 217.3,55.8 217.1,56.6 216.8,57.5 216.6,58.3 216.4,59.1 216.1,60 215.9,60.8 215.6,61.6 215.3,62.4 215,63.1 214.7,63.9 214.4,64.7 214.9,65.5 215.4,66.2 215.9,67 216.5,67.8 217,68.5 217.6,69.3 218.3,70 218.9,70.8 219.6,71.4 220.3,72.1 221,72.8 221.7,73.5 222.5,74.2 223.3,74.8 224.1,75.4 224.9,76 225.4,75.8 225.9,75.5 226.4,75.2 226.9,74.9 227.3,74.6 227.8,74.3 228.2,74 228.7,73.7 228,73 227.4,72.2 226.8,71.4 226.3,70.6 225.7,69.8 225.2,69 224.7,68.2 224.2,67.4 223.7,66.5 223.3,65.7 222.8,64.8 222.4,64 222.1,63.1 221.7,62.2 221.4,61.3 221,60.4 220.7,59.5 220.5,58.6 220.2,57.7 220,56.7 219.8,55.8 219.6,54.9 219.4,53.9 219.3,53 219.2,52 219.1,51 219,50.1 219,49.1 218.9,48.1 218.9,47.1 219,46.1 219,45.1 219.1,44.1 219.2,43 219.3,42 219.5,40.9 219.7,39.9 219.9,38.9 220.1,37.8 220.4,36.8 220.7,35.8 221,34.8 221.4,33.9 221.8,32.9 222.2,31.9 222.6,31 223,30.1 223.5,29.1 224,28.2 224.6,27.3 225.1,26.5 225.7,25.6 226.3,24.7 226.9,23.9 227.5,23.1 228.2,22.2 228.9,21.4 229.6,20.6 230.3,19.9 231.1,19.1 231.8,18.4 232.6,17.6 233.4,16.9"/><polygon class="st2" points="225.5,9.5 225,9.2 224.5,9 223.9,8.7 223.4,8.4 222.3,9 221.3,9.5 220.3,10 219.3,10.6 218.3,11.2 217.3,11.8 216.3,12.4 215.4,13 215.6,13.7 215.7,14.3 215.9,15 216.1,15.6 216.3,16.3 216.4,16.9 216.6,17.6 216.7,18.3 217.8,17.1 218.8,16 219.9,14.8 221,13.7 222.1,12.6 223.2,11.6 224.3,10.6"/><polygon class="st2" points="214.5,79.7 215.1,79.6 215.7,79.5 216.3,79.4 216.9,79.2 217.4,79 218,78.9 218.6,78.7 219.2,78.5 218.2,77.4 217.3,76.4 216.4,75.2 215.5,74.1 214.6,73 213.7,71.8 212.9,70.6 212.1,69.3 211.7,70.1 211.2,70.8 210.8,71.4 210.4,72.1 209.9,72.8 209.4,73.4 209,74.1 208.5,74.7 209.2,75.4 209.9,76 210.6,76.7 211.4,77.3 212.1,77.9 212.9,78.5 213.7,79.1"/><polygon class="st3" points="244,34 243.3,34.6 242.6,35.2 242,35.9 241.3,36.6 241,37 240.7,37.3 240.5,37.7 240.2,38.1 239.9,38.5 239.6,38.8 239.4,39.2 239.2,39.6 238.9,40 238.7,40.4 238.5,40.8 238.3,41.2 238.1,41.6 237.9,42 237.7,42.5 237.6,42.9 237.4,43.3 237.3,43.8 237.1,44.2 237,44.6 236.9,45.1 236.8,45.5 236.7,46 236.6,46.4 236.5,46.9 236.4,47.4 236.4,47.9 236.3,48.4 236.3,48.9 236.3,49.4 236.3,49.9 236.3,50.4 236.3,50.9 236.3,51.4 236.4,51.8 236.4,52.3 236.5,52.8 236.6,53.3 236.6,53.8 236.8,54.3 236.9,54.7 237,55.2 237.1,55.7 237.3,56.2 237.4,56.6 237.6,57.1 237.8,57.6 238,58 238.2,58.5 238.4,58.9 238.6,59.4 238.8,59.8 239.1,60.3 239.3,60.7 239.6,61.2 239.9,61.6 240.5,60.6 241,59.5 241.3,58.9 241.6,58.4 241.8,57.8 242,57.3 242.3,56.7 242.5,56.1 242.7,55.6 242.9,55 243.1,54.4 243.3,53.8 243.5,53.2 243.6,52.6 243.8,52 243.9,51.4 244.1,50.8 244.2,50.2 244.3,49.6 244.5,49 244.5,48.3 244.6,47.7 244.7,47.1 244.8,46.5 244.8,45.8 244.9,45.2 244.9,44.6 245,43.9 245,43.3 245,42.6 245,41.5 244.9,40.4 244.8,39.3 244.7,38.2 244.6,37.1 244.4,36.1 244.2,35"/><polygon class="st4" points="232.4,45.8 232.4,45.1 232.5,44.4 232.6,43.7 232.7,43 232.9,42.3 233,41.7 233.2,41 233.3,40.3 233.5,39.6 233.7,38.9 233.8,38.3 234.1,37.6 234.3,36.9 234.5,36.3 234.7,35.6 235,34.9 235.3,34.3 235.6,33.6 235.8,33 236.1,32.3 236.5,31.7 236.8,31.1 237.1,30.4 237.5,29.8 237.8,29.2 238.2,28.6 238.6,28 239,27.4 239.4,26.8 239.8,26.3 240.3,25.7 240.7,25.2 240.4,24.6 240.2,24.1 239.9,23.6 239.5,23 238.7,23.5 237.8,24 237,24.5 236.2,25.1 235.4,25.7 234.6,26.2 233.9,26.8 233.2,27.4 232.5,28 231.8,28.7 231.1,29.3 230.5,30 229.9,30.6 229.3,31.4 228.8,32.1 228.2,32.8 227.7,33.5 227.2,34.3 226.8,35.1 226.3,35.8 225.9,36.6 225.5,37.4 225.2,38.2 224.9,39.1 224.6,39.9 224.3,40.8 224,41.6 223.8,42.5 223.6,43.4 223.5,44.3 223.4,45.2 223.2,46.2 223.2,47 223.2,47.8 223.2,48.6 223.2,49.4 223.2,50.3 223.3,51.1 223.4,51.9 223.6,52.7 223.7,53.5 223.9,54.3 224.1,55.1 224.3,55.9 224.6,56.7 224.8,57.5 225.1,58.2 225.5,59 225.8,59.8 226.2,60.5 226.5,61.2 227,62 227.4,62.7 227.8,63.4 228.3,64.1 228.8,64.8 229.3,65.5 229.8,66.2 230.3,66.8 230.9,67.5 231.5,68.1 232.1,68.7 232.7,69.4 233.3,69.9 233.7,69.6 234.1,69.2 234.4,68.8 234.8,68.4 235.2,68 235.6,67.6 235.9,67.2 236.3,66.8 236,66.2 235.7,65.6 235.4,65 235.1,64.4 234.9,63.8 234.6,63.2 234.4,62.6 234.2,62 233.9,61.4 233.7,60.7 233.5,60.1 233.4,59.4 233.2,58.8 233.1,58.2 232.9,57.5 232.8,56.8 232.7,56.2 232.6,55.5 232.5,54.8 232.4,54.2 232.3,53.5 232.2,52.8 232.2,52.1 232.2,51.4 232.1,50.7 232.1,50 232.1,49.3 232.2,48.6 232.2,47.9 232.2,47.2 232.3,46.5"/><polygon class="st5" points="180.9,15.4 180.3,16 179.7,16.6 179.1,17.2 178.6,17.9 178,18.5 177.5,19.2 176.9,19.8 176.4,20.5 175.9,21.2 175.5,22 175,22.7 174.6,23.4 174.1,24.1 173.7,24.9 173.3,25.7 173,26.4 172.6,27.2 172.2,28 171.9,28.8 171.6,29.6 171.3,30.5 171.1,31.3 170.8,32.1 170.6,33 170.4,33.8 170.2,34.7 170,35.5 169.8,36.4 169.7,37.3 169.6,38.2 169.5,39.1 169.4,40 170,39.4 170.6,38.8 171.1,38.2 171.7,37.6 172.2,36.9 172.7,36.2 173.2,35.6 173.7,34.8 174.2,34.1 174.6,33.4 175.1,32.7 175.5,31.9 175.9,31.1 176.3,30.3 176.7,29.6 177.1,28.8 177.4,28 177.8,27.1 178.1,26.3 178.4,25.5 178.7,24.7 179,23.8 179.2,23 179.5,22.1 179.7,21.3 179.9,20.4 180.1,19.6 180.3,18.8 180.5,17.9 180.6,17.1 180.8,16.2"/><polygon class="st6" points="188.3,9.8 187.9,10 187.5,10.3 187.1,10.6 186.6,10.9 186.3,12.4 185.9,14 185.5,15.5 185.2,17 184.8,18.4 184.4,19.8 183.9,21.2 183.5,22.6 183.1,23.9 182.6,25.2 182.1,26.5 181.6,27.7 181.1,29 180.6,30.2 180.1,31.3 179.6,32.5 179,33.6 178.5,34.7 177.9,35.8 177.3,36.8 176.8,37.8 176.1,38.8 175.5,39.8 174.9,40.8 174.3,41.7 173.7,42.6 173,43.5 172.4,44.4 171.7,45.3 171.1,46.2 170.4,47 169.7,47.8 169.8,48.5 169.9,49.2 170,49.9 170.2,50.6 170.3,51.3 170.5,52 170.7,52.7 170.9,53.4 172.3,52.5 173.7,51.5 174.9,50.4 176.1,49.3 177.3,48.2 178.4,46.9 179.4,45.7 180.3,44.4 181.2,43.1 182,41.7 182.8,40.3 183.5,38.8 184.2,37.4 184.8,35.9 185.4,34.4 185.9,32.9 186.3,31.4 186.8,29.8 187.1,28.3 187.4,26.7 187.7,25.2 188,23.7 188.2,22.2 188.3,20.7 188.4,19.2 188.5,17.8 188.6,16.4 188.6,15 188.6,13.6 188.5,12.3 188.5,11"/><polygon class="st7" points="219.1,35 219.1,34 219,33 218.9,32 218.9,31 218.8,30 218.7,29 218.6,28 218.4,27.1 218.3,26.1 218.2,25.1 218,24.1 217.9,23.2 217.7,22.2 217.5,21.3 217.3,20.3 217.1,19.4 216.9,18.5 216.7,17.5 216.5,16.6 216.2,15.7 216,14.8 215.8,13.9 215.5,13 215.2,12.1 215,11.2 214.7,10.3 214.4,9.4 214.1,8.6 213.8,7.7 213.4,6.9 213.1,6 212.8,5.2 212.2,5.1 211.7,5.1 211.1,5 210.6,5 210.9,7.6 211.1,10.3 211.4,13 211.5,15.6 211.7,18.3 211.7,20.9 211.8,23.5 211.8,26.1 211.7,28.7 211.6,31.2 211.4,33.8 211.2,36.3 211,38.7 210.6,41.2 210.2,43.6 209.8,46 209.3,48.3 208.7,50.6 208.1,52.9 207.4,55.1 206.7,57.3 205.9,59.4 205,61.5 204.1,63.6 203,65.6 202,67.5 200.8,69.4 199.6,71.3 198.3,73.1 196.9,74.8 195.4,76.5 193.9,78.1 194.5,78.3 195,78.5 195.6,78.6 196.2,78.8 196.8,79 197.4,79.2 198,79.3 198.5,79.5 199.1,79.6 199.7,79.7 200.3,79.8 200.9,80 201.6,80 202.2,80.1 202.8,80.2 203.4,80.3 204.4,79.4 205.3,78.5 206.2,77.6 207.1,76.6 207.9,75.6 208.8,74.5 209.6,73.5 210.3,72.3 211.1,71.2 211.8,70 212.5,68.8 213.2,67.5 213.8,66.3 214.4,64.9 215,63.6 215.5,62.2 216,60.8 216.5,59.3 216.9,57.8 217.3,56.2 217.6,54.7 218,53.1 218.3,51.4 218.5,49.7 218.7,48 218.9,46.3 219,44.5 219.1,42.7 219.2,40.8 219.2,38.9 219.2,37"/><polygon class="st8" points="204.4,4.9 203.9,4.9 203.3,5 202.8,5 202.2,5.1 202.3,6.9 202.3,8.7 202.3,10.7 202.3,12.6 202.2,14.7 202.1,16.7 202,18.8 201.8,21 201.6,23.2 201.4,25.4 201.1,27.6 200.8,29.9 200.4,32.1 200,34.4 199.5,36.6 199,38.9 198.4,41.1 197.7,43.4 197,45.6 196.2,47.8 195.4,49.9 194.5,52.1 193.5,54.1 192.5,56.2 191.3,58.2 190.2,60.1 188.9,62 187.6,63.8 186.1,65.5 184.6,67.2 183,68.7 181.3,70.2 182,70.8 182.6,71.4 183.3,72 184,72.5 184.7,73.1 185.4,73.6 186.1,74.1 186.9,74.6 189,73 191.1,71.3 193,69.6 194.7,67.8 196.4,65.9 197.9,64 199.3,61.9 200.6,59.9 201.7,57.7 202.8,55.6 203.7,53.3 204.6,51.1 205.3,48.8 206,46.5 206.5,44.1 206.9,41.7 207.3,39.4 207.6,37 207.8,34.6 207.9,32.2 207.9,29.8 207.9,27.4 207.8,25 207.6,22.6 207.4,20.3 207.1,18 206.8,15.7 206.4,13.4 206,11.2 205.5,9.1 205,6.9"/><polygon class="st9" points="196,6.5 195.5,6.6 195.1,6.8 194.6,6.9 194.1,7.1 194,8.9 193.9,10.7 193.7,12.5 193.5,14.3 193.3,16.1 193.1,18 192.8,19.8 192.5,21.6 192.2,23.4 191.8,25.2 191.4,27 190.9,28.8 190.4,30.5 189.9,32.3 189.4,34 188.8,35.8 188.2,37.5 187.5,39.2 186.8,40.8 186.1,42.5 185.3,44.1 184.4,45.7 183.6,47.2 182.6,48.8 181.7,50.3 180.6,51.8 179.6,53.2 178.4,54.6 177.3,56 176.1,57.3 174.8,58.6 173.5,59.8 173.8,60.5 174.2,61.2 174.6,61.9 175,62.5 175.4,63.2 175.8,63.8 176.3,64.5 176.7,65.1 178.5,63.9 180.2,62.7 181.8,61.4 183.4,60 184.8,58.5 186.1,56.9 187.4,55.3 188.6,53.6 189.7,51.8 190.7,50 191.7,48.2 192.6,46.3 193.4,44.4 194.1,42.4 194.7,40.4 195.3,38.4 195.8,36.4 196.3,34.3 196.6,32.2 197,30.2 197.2,28.1 197.4,26 197.5,24 197.6,21.9 197.6,19.8 197.5,17.9 197.4,15.8 197.2,13.9 197,12 196.7,10.1 196.4,8.2"/></g></svg>