<?xml version="1.0" encoding="utf-8" ?>
<!DOCTYPE svg PUBLIC "-//W3C//DTD SVG 1.1//EN" "http://www.w3.org/Graphics/SVG/1.1/DTD/svg11.dtd">
<svg xmlns:cc="http://creativecommons.org/ns#" xmlns:inkscape="http://www.inkscape.org/namespaces/inkscape" xmlns:rdf="http://www.w3.org/1999/02/22-rdf-syntax-ns#" xmlns:sodipodi="http://sodipodi.sourceforge.net/DTD/sodipodi-0.dtd" xmlns:svg="http://www.w3.org/2000/svg" xmlns="http://www.w3.org/2000/svg" xmlns:xlink="http://www.w3.org/1999/xlink" version="1.1" id="svg5148" x="0px" y="0px" viewBox="0 0 160.1 24.7" style="enable-background:new 0 0 160.1 24.7;" xml:space="preserve"><style type="text/css">.st0{clip-path:url('#SVGID_00000158724360892079874180000011226113046882331826_');} .st1{fill:#FFFFFF;} .st2{clip-path:url('#SVGID_00000000929962623430634560000000293445319978558346_');} .st3{clip-path:url('#SVGID_00000119828869717251240980000015151998490632423566_');} .st4{fill:#0099D8;}</style><g id="g5156" transform="matrix(1.25,0,0,-1.25,-243.61419,808.99386)"><g id="g5172" transform="matrix(1.7699878,0,0,1.7699878,-192.73527,-460.81709)"><g><defs><rect id="SVGID_1_" x="-371" y="-480.1" width="1354" height="1752.3"/></defs><clipPath id="SVGID_00000106105278745811194230000008895075944235907991_"><use xlink:href="#SVGID_1_" style="overflow:visible;"/></clipPath><g id="g5174" style="clip-path:url('#SVGID_00000106105278745811194230000008895075944235907991_');"><g id="g5180" transform="translate(245.869,621.0563)"><path id="path5182" class="st1" d="M0,0c0.1,0.1,4.7,4.9,4.7,4.9H0.3c0,0-4.1-3.8-4.3-4v4h-4.1V-6.2H-4v2.4 c0,0,0.8,0.7,0.9,0.8C-3-3.2-0.5-6.2-0.5-6.2H5C5-6.2,0.1-0.1,0,0"/></g></g></g></g><g id="g5184" transform="matrix(1.7699878,0,0,1.7699878,315.31635,647.19509)"><path id="path5186" class="st1" d="M0,0v-4l-3.5,0l0,4h-4.2v-11.1l4.2,0v4H0v-4l4.3,0L4.3,0H0z"/></g><g id="g5188" transform="matrix(1.7699878,0,0,1.7699878,-192.73527,-460.81709)"><g><defs><rect id="SVGID_00000093863358027034724880000015737032840492448678_" x="-371" y="-480.1" width="1354" height="1752.3"/></defs><clipPath id="SVGID_00000130613744804348209420000012575081755423807653_"><use xlink:href="#SVGID_00000093863358027034724880000015737032840492448678_" style="overflow:visible;"/></clipPath><g id="g5190" style="clip-path:url('#SVGID_00000130613744804348209420000012575081755423807653_');"><g id="g5196" transform="translate(259.2177,622.5907)"><path id="path5198" class="st1" d="M0,0v-4.5c0-0.5-0.3-0.8-0.7-0.8h-2.4c-0.4,0-0.7,0.4-0.7,0.8V0c0,0.5,0.3,0.8,0.7,0.8h2.4 C-0.3,0.8,0,0.5,0,0 M1.7,3.4h-7.3C-6.9,3.4-8,2.1-8,0.6v-5.5c0-1.5,1.1-2.8,2.5-2.8h7.3c1.4,0,2.5,1.2,2.5,2.8v5.5 C4.2,2.1,3.1,3.4,1.7,3.4"/></g><g id="g5200" transform="translate(277.3047,621.946)"><path id="path5202" class="st1" d="M0,0v0.8c0,1-0.4,2-1,2.6C-1.3,3.8-1.8,4-2.2,4h-7.6c-1.2,0-2.2-1.4-2.2-3.2v-4.7 c0-1.8,1-3.2,2.2-3.2h7.6C-1-7.1,0-5.7,0-3.9v1.3l-4,0l-0.1-1.1c0-0.5-0.4-0.9-0.7-0.9h-2.3c-0.4,0-0.7,0.4-0.7,0.8v4.4 c0,0.4,0.3,0.8,0.7,0.8h2.3c0.4,0,0.7-0.4,0.7-0.8l0-0.6H0z"/></g></g></g></g><g id="g5208" transform="matrix(1.7699878,0,0,1.7699878,-192.73527,-460.81709)"><g><defs><rect id="SVGID_00000160888147567050534050000011644558793276268192_" x="-371" y="-480.1" width="1354" height="1752.3"/></defs><clipPath id="SVGID_00000178180262305607248250000015266859011261005707_"><use xlink:href="#SVGID_00000160888147567050534050000011644558793276268192_" style="overflow:visible;"/></clipPath><g id="g5210" style="clip-path:url('#SVGID_00000178180262305607248250000015266859011261005707_');"><g id="g5216" transform="translate(226.3596,625.9838)"><path id="path5218" class="st1" d="M0,0L0,0h-7.4v-11.1l7.3,0c0,0-1.7,5.5-1.7,5.5C-1.8-5.6,0,0,0,0"/></g></g></g></g><g id="g5220" transform="matrix(1.7699878,0,0,1.7699878,212.5298,647.16482)"><path id="path5222" class="st4" d="M0,0l-3.3-5.6L0-11.1h5.2V0H0z"/></g></g></svg>