<?xml version="1.0" encoding="utf-8" ?>
<!DOCTYPE svg PUBLIC "-//W3C//DTD SVG 1.1//EN" "http://www.w3.org/Graphics/SVG/1.1/DTD/svg11.dtd">
<svg xmlns="http://www.w3.org/2000/svg" xmlns:xlink="http://www.w3.org/1999/xlink" id="svg5148" viewBox="0 0 160.07 24.73"><defs><style>.cls-1{fill:none;}.cls-2{clip-path:url('#clip-path');}.cls-3{fill:#fff;}</style><clipPath id="clip-path"><rect class="cls-1" x="-484.53" y="-367.27" width="1354.04" height="1752.29"/></clipPath></defs><g id="g5156"><g id="g5172"><g class="cls-2"><g id="g5174"><g id="g5180"><path id="path5182" class="cls-3" d="M59.45,10.94C59.59,10.78,69.79,0,69.79,0H60.13s-9.06,8.4-9.47,8.76V0H41.59V24.7h9.07V19.4l1.91-1.67,5.67,7H70.49L59.49,11"/></g></g></g></g><g id="g5184"><path id="path5186" class="cls-3" d="M150.53,0V8.81h-7.85V0h-9.31V24.64h9.36v-9h7.73v9h9.61V0Z"/></g><g id="g5188"><g class="cls-2"><g id="g5190"><g id="g5196"><path id="path5198" class="cls-3" d="M89,7.54v9.88a1.73,1.73,0,0,1-1.62,1.82H82.12a1.73,1.73,0,0,1-1.63-1.82V7.54a1.74,1.74,0,0,1,1.63-1.82h5.24A1.74,1.74,0,0,1,89,7.54M92.75,0H76.68c-3,0-5.46,2.76-5.46,6.16V18.47c0,3.4,2.44,6.17,5.46,6.17H92.75c3,0,5.46-2.77,5.46-6.17V6.19c0-3.4-2.45-6.16-5.46-6.16"/></g><g id="g5200"><path id="path5202" class="cls-3" d="M129,9V7.1a8.28,8.28,0,0,0-2.11-5.77A4,4,0,0,0,124.08,0H107.24c-2.71,0-4.92,3.17-4.92,7.07V17.59c0,3.89,2.21,7.06,4.92,7.06h16.84c2.71,0,4.92-3.17,4.92-7.06V14.75h-8.84L120,17.1c-.1,1-.78,2.09-1.63,2.09h-5.14a1.7,1.7,0,0,1-1.63-1.77h0V7.6a1.71,1.71,0,0,1,1.63-1.78h5.14A1.71,1.71,0,0,1,120,7.57V9Z"/></g></g></g></g><g id="g5208"><g class="cls-2"><g id="g5210"><g id="g5216"><path id="path5218" class="cls-3" d="M16.28,0H0V24.67H16.16L12.33,12.4l4-12.4"/></g></g></g></g><g id="g5220"><path id="path5222" class="cls-3" d="M22.05,0,14.64,12.37l7.41,12.3H33.48V0Z"/></g></g></svg>