<?xml version="1.0" encoding="utf-8" ?>
<!DOCTYPE svg PUBLIC "-//W3C//DTD SVG 1.1//EN" "http://www.w3.org/Graphics/SVG/1.1/DTD/svg11.dtd">
<svg xmlns="http://www.w3.org/2000/svg" width="1512" height="208" viewBox="0 0 1512 208" fill="none"><g clip-path="url('#clip0_190_33')"><path d="M720.06 106.882V122.683H678.906V142.438H714.577V157.045H678.906V192.37H660.184V106.864H720.078L720.06 106.882Z" fill="#8C8C8C"/><path d="M722.404 148.014C723.913 143.988 726.06 140.55 728.846 137.718C731.633 134.885 734.969 132.694 738.873 131.127C742.777 129.577 747.143 128.793 752.005 128.793C756.868 128.793 761.251 129.577 765.191 131.127C769.131 132.676 772.485 134.885 775.271 137.718C778.057 140.55 780.205 143.988 781.713 148.014C783.222 152.04 783.985 156.529 783.985 161.481C783.985 166.433 783.222 170.905 781.713 174.895C780.205 178.885 778.057 182.305 775.271 185.138C772.485 187.97 769.131 190.143 765.191 191.657C761.251 193.172 756.85 193.938 752.005 193.938C747.161 193.938 742.777 193.172 738.873 191.657C734.969 190.143 731.633 187.97 728.846 185.138C726.06 182.305 723.913 178.885 722.404 174.895C720.896 170.905 720.133 166.433 720.133 161.481C720.133 156.529 720.896 152.04 722.404 148.014ZM737.791 168.731C738.27 171.083 739.086 173.202 740.24 175.073C741.393 176.943 742.919 178.44 744.836 179.562C746.753 180.684 749.131 181.236 751.988 181.236C754.845 181.236 757.258 180.684 759.211 179.562C761.163 178.44 762.707 176.943 763.86 175.073C765.014 173.202 765.83 171.083 766.309 168.731C766.788 166.38 767.019 163.957 767.019 161.481C767.019 159.005 766.788 156.565 766.309 154.177C765.83 151.79 765.014 149.671 763.86 147.836C762.707 146.001 761.163 144.505 759.211 143.347C757.258 142.189 754.863 141.619 751.988 141.619C749.113 141.619 746.735 142.207 744.836 143.347C742.919 144.505 741.393 146.001 740.24 147.836C739.086 149.671 738.27 151.79 737.791 154.177C737.311 156.565 737.081 159.005 737.081 161.481C737.081 163.957 737.311 166.38 737.791 168.731Z" fill="#8C8C8C"/><path d="M807.229 130.467V141.957H807.46C808.259 140.033 809.323 138.27 810.672 136.631C812.021 134.992 813.582 133.603 815.322 132.445C817.078 131.287 818.942 130.396 820.929 129.755C822.917 129.114 824.993 128.793 827.141 128.793C828.259 128.793 829.483 128.989 830.832 129.399V145.199C830.033 145.039 829.075 144.897 827.975 144.772C826.857 144.647 825.792 144.594 824.745 144.594C821.639 144.594 819.013 145.11 816.866 146.143C814.718 147.177 812.997 148.602 811.684 150.401C810.37 152.2 809.43 154.284 808.88 156.689C808.329 159.076 808.046 161.677 808.046 164.474V192.37H791.098V130.45H807.211L807.229 130.467Z" fill="#8C8C8C"/><path d="M878.041 192.388V183.766H877.686C875.539 187.365 872.752 189.948 869.327 191.551C865.902 193.154 862.406 193.938 858.821 193.938C854.296 193.938 850.569 193.332 847.659 192.139C844.748 190.945 842.477 189.253 840.791 187.044C839.123 184.853 837.951 182.181 837.277 179.028C836.603 175.875 836.266 172.383 836.266 168.553V130.468H853.213V165.436C853.213 170.549 854.012 174.361 855.592 176.872C857.189 179.384 860.01 180.649 864.057 180.649C868.671 180.649 872.007 179.277 874.083 176.516C876.142 173.755 877.189 169.23 877.189 162.924V130.468H894.137V192.388H878.023H878.041Z" fill="#8C8C8C"/><path d="M918.855 130.467V138.858H919.086C921.304 135.669 924.001 133.193 927.143 131.429C930.284 129.666 933.886 128.793 937.932 128.793C941.979 128.793 945.386 129.559 948.616 131.073C951.846 132.587 954.277 135.259 955.945 139.089C957.773 136.382 960.258 133.977 963.399 131.91C966.54 129.844 970.266 128.793 974.561 128.793C977.826 128.793 980.843 129.185 983.63 129.986C986.416 130.788 988.794 132.071 990.781 133.816C992.769 135.58 994.313 137.878 995.431 140.71C996.549 143.543 997.099 146.963 997.099 150.953V192.388H980.151V157.295C980.151 155.228 980.063 153.269 979.921 151.434C979.761 149.599 979.317 147.996 978.607 146.642C977.898 145.288 976.833 144.202 975.448 143.4C974.064 142.599 972.165 142.207 969.787 142.207C967.409 142.207 965.475 142.67 964.002 143.578C962.529 144.505 961.376 145.698 960.541 147.177C959.707 148.655 959.157 150.33 958.873 152.2C958.589 154.071 958.447 155.977 958.447 157.883V192.37H941.5V157.633C941.5 155.798 941.464 153.982 941.375 152.182C941.287 150.383 940.949 148.726 940.364 147.212C939.76 145.698 938.767 144.487 937.382 143.56C935.998 142.652 933.939 142.189 931.242 142.189C930.443 142.189 929.396 142.367 928.083 142.723C926.77 143.08 925.492 143.756 924.268 144.754C923.025 145.752 921.978 147.194 921.109 149.065C920.239 150.935 919.796 153.394 919.796 156.422V192.352H902.848V130.432H918.837L918.855 130.467Z" fill="#8C8C8C"/><path d="M1491.24 64.1293L1484.32 42.7529H1417.14L1424.07 64.1293H1491.24Z" fill="white"/><path d="M1477.41 21.3764L1470.49 0H1403.3L1410.22 21.3764H1477.41Z" fill="white"/><path d="M1403.3 0H1380.92L1360.16 64.1293H1382.56L1403.3 0Z" fill="white"/><path d="M1358.53 0H1336.13L1315.37 64.1293H1337.76L1358.53 0Z" fill="white"/><path d="M1315.37 64.1289L1308.45 85.5053L1362.8 125.141L1369.72 103.764L1315.37 64.1289Z" fill="white"/><path d="M1301.52 106.882L1294.62 128.258L1348.96 167.894L1355.88 146.517L1301.52 106.882Z" fill="white"/><path d="M1348.96 167.894L1367.08 181.112L1421.42 141.477L1403.3 128.259L1348.96 167.894Z" fill="white"/><path d="M1385.18 194.311L1403.3 207.529L1457.66 167.894L1439.54 154.676L1385.18 194.311Z" fill="white"/><path d="M1457.66 167.894L1475.76 154.676L1455.01 90.5469L1436.89 103.765L1457.66 167.894Z" fill="white"/><path d="M1493.88 141.476L1512 128.258L1491.23 64.1289L1473.13 77.3467L1493.88 141.476Z" fill="white"/><path d="M706.255 0L738.11 85.5057H718.66L712.218 66.4628H680.363L673.691 85.5057H654.844L687.054 0H706.255ZM707.338 52.4613L696.601 21.0914H696.37L685.279 52.4613H707.356H707.338Z" fill="white"/><path d="M764.41 0V85.5057H745.688V0H764.41Z" fill="white"/><path d="M847.214 0C852.698 0 857.809 0.87287 862.547 2.63642C867.285 4.39998 871.367 7.0364 874.827 10.5457C878.288 14.055 880.985 18.455 882.938 23.71C884.89 28.9829 885.866 35.1642 885.866 42.2719C885.866 48.5067 885.067 54.2427 883.488 59.5155C881.89 64.7884 879.495 69.3308 876.265 73.1608C873.053 76.9907 869.024 80.0012 864.215 82.2101C859.406 84.4012 853.727 85.5057 847.214 85.5057H810.461V0H847.214ZM844.641 69.7049C847.338 69.7049 849.965 69.2596 852.52 68.3867C855.058 67.5139 857.329 66.0531 859.317 64.0224C861.305 61.9916 862.902 59.3374 864.091 56.0597C865.28 52.7819 865.883 48.7917 865.883 44.0889C865.883 39.778 865.457 35.8946 864.623 32.4209C863.789 28.9472 862.423 25.9723 860.506 23.4962C858.589 21.0201 856.069 19.1319 852.928 17.8137C849.787 16.4955 845.901 15.8364 841.304 15.8364H827.941V69.7227H844.641V69.7049Z" fill="white"/><path d="M953.408 34.9683V23.5853H963.542V18.7934C963.542 13.289 965.245 8.78215 968.67 5.25504C972.095 1.76355 977.26 0 984.181 0C985.689 0 987.198 0.0534411 988.706 0.178137C990.215 0.302833 991.688 0.391901 993.125 0.48097V13.1821C991.137 12.9506 989.061 12.8259 986.914 12.8259C984.607 12.8259 982.956 13.3603 981.963 14.4469C980.969 15.5335 980.472 17.3327 980.472 19.8979V23.6031H992.167V34.9861H980.472V85.5235H963.524V34.9861H953.391L953.408 34.9683Z" fill="white"/><path d="M1077.37 23.5856V32.2074H1077.72C1079.87 28.6091 1082.66 26.0083 1086.08 24.3694C1089.51 22.7306 1093 21.9111 1096.59 21.9111C1101.11 21.9111 1104.84 22.5346 1107.75 23.7638C1110.66 25.0107 1112.93 26.7208 1114.62 28.9119C1116.29 31.103 1117.46 33.775 1118.13 36.9281C1118.81 40.0811 1119.14 43.5726 1119.14 47.4025V85.4882H1102.2V50.5199C1102.2 45.4074 1101.4 41.5953 1099.82 39.0835C1098.22 36.5718 1095.4 35.307 1091.35 35.307C1086.74 35.307 1083.4 36.6787 1081.33 39.4398C1079.25 42.2009 1078.22 46.7256 1078.22 53.0316V85.4882H1061.27V23.5856H1077.39H1077.37Z" fill="white"/><path d="M1142.68 70.115C1143.44 71.4332 1144.4 72.502 1145.6 73.3392C1146.81 74.1765 1148.18 74.8 1149.72 75.1919C1151.26 75.5838 1152.88 75.7975 1154.55 75.7975C1155.74 75.7975 1157 75.655 1158.31 75.37C1159.62 75.085 1160.81 74.6575 1161.9 74.0518C1162.98 73.4461 1163.86 72.6623 1164.57 71.6648C1165.28 70.6672 1165.66 69.4024 1165.66 67.8883C1165.66 65.3409 1163.97 63.417 1160.58 62.1344C1157.19 60.8518 1152.49 59.5871 1146.44 58.3045C1143.97 57.7523 1141.56 57.0932 1139.22 56.3272C1136.87 55.5612 1134.78 54.5636 1132.95 53.3345C1131.12 52.1053 1129.65 50.5377 1128.53 48.6673C1127.41 46.7968 1126.86 44.4989 1126.86 41.7734C1126.86 37.7831 1127.64 34.5054 1129.19 31.9581C1130.73 29.4107 1132.79 27.3799 1135.33 25.9192C1137.87 24.4407 1140.74 23.4075 1143.92 22.8018C1147.09 22.1962 1150.36 21.9111 1153.7 21.9111C1157.03 21.9111 1160.28 22.2318 1163.42 22.8731C1166.56 23.5144 1169.37 24.5832 1171.83 26.1152C1174.3 27.6293 1176.34 29.6423 1177.97 32.154C1179.61 34.6657 1180.58 37.8366 1180.9 41.6665H1164.79C1164.56 38.3888 1163.31 36.1799 1161.1 35.022C1158.86 33.8641 1156.25 33.2941 1153.22 33.2941C1152.26 33.2941 1151.23 33.3475 1150.11 33.4722C1148.99 33.5969 1147.98 33.8463 1147.08 34.256C1146.15 34.6479 1145.39 35.2358 1144.75 35.9839C1144.11 36.7499 1143.79 37.7653 1143.79 39.0301C1143.79 40.5442 1144.34 41.7912 1145.46 42.7353C1146.58 43.6973 1148.04 44.4633 1149.81 45.0689C1151.6 45.6746 1153.64 46.209 1155.95 46.69C1158.26 47.1709 1160.6 47.6875 1163 48.2398C1165.46 48.792 1167.86 49.4867 1170.22 50.2705C1172.56 51.0721 1174.65 52.1231 1176.48 53.4414C1178.31 54.7596 1179.78 56.3984 1180.9 58.3579C1182.02 60.3174 1182.57 62.7223 1182.57 65.6081C1182.57 69.6874 1181.75 73.0899 1180.12 75.851C1178.49 78.6121 1176.36 80.821 1173.73 82.4955C1171.11 84.17 1168.11 85.3457 1164.72 86.0226C1161.33 86.6995 1157.9 87.038 1154.39 87.038C1150.87 87.038 1147.31 86.6817 1143.88 85.9691C1140.46 85.2566 1137.42 84.0453 1134.76 82.3708C1132.1 80.6963 1129.92 78.4874 1128.19 75.7263C1126.49 72.9651 1125.55 69.5271 1125.39 65.3587H1141.5C1141.5 67.1935 1141.88 68.7789 1142.64 70.0971L1142.68 70.115Z" fill="white"/><path d="M1209 70.6486C1211.53 73.1247 1215.21 74.3539 1219.96 74.3539C1223.39 74.3539 1226.33 73.4988 1228.8 71.7709C1231.27 70.0608 1232.78 68.2438 1233.33 66.3199H1248.23C1245.85 73.7482 1242.18 79.0567 1237.27 82.2453C1232.33 85.434 1226.37 87.0372 1219.38 87.0372C1214.53 87.0372 1210.15 86.2534 1206.26 84.7036C1202.36 83.1538 1199.06 80.9271 1196.36 78.0591C1193.66 75.1911 1191.57 71.7531 1190.1 67.7628C1188.62 63.7726 1187.89 59.3726 1187.89 54.5807C1187.89 49.7888 1188.66 45.6382 1190.17 41.648C1191.67 37.6577 1193.82 34.2018 1196.61 31.2804C1199.39 28.3768 1202.71 26.0788 1206.56 24.4043C1210.41 22.7298 1214.69 21.8926 1219.39 21.8926C1224.65 21.8926 1229.21 22.908 1233.11 24.9387C1237 26.9695 1240.21 29.7128 1242.71 33.1508C1245.22 36.5889 1247.03 40.4901 1248.14 44.89C1249.26 49.29 1249.65 53.8681 1249.33 58.66H1204.82C1205.06 64.1645 1206.46 68.1547 1209 70.6308V70.6486ZM1228.13 38.0852C1226.1 35.8585 1223.01 34.7362 1218.88 34.7362C1216.18 34.7362 1213.93 35.1994 1212.14 36.1079C1210.34 37.0342 1208.91 38.1565 1207.84 39.5281C1206.76 40.882 1206.01 42.3249 1205.57 43.839C1205.13 45.3532 1204.88 46.707 1204.79 47.9184H1232.35C1231.55 43.6075 1230.15 40.3297 1228.11 38.103L1228.13 38.0852Z" fill="white"/><path d="M1013.8 70.6486C1016.34 73.1247 1020.01 74.3539 1024.77 74.3539C1028.19 74.3539 1031.14 73.4988 1033.6 71.7709C1036.07 70.0608 1037.58 68.2438 1038.13 66.3199H1053.04C1050.66 73.7482 1046.99 79.0567 1042.07 82.2453C1037.14 85.434 1031.17 87.0372 1024.18 87.0372C1019.34 87.0372 1014.95 86.2534 1011.07 84.7036C1007.16 83.1538 1003.86 80.9271 1001.16 78.0591C998.467 75.1911 996.373 71.7531 994.9 67.7628C993.427 63.7726 992.699 59.3726 992.699 54.5807C992.699 49.7888 993.462 45.6382 994.971 41.648C996.479 37.6577 998.626 34.2018 1001.41 31.2804C1004.2 28.3768 1007.52 26.0788 1011.37 24.4043C1015.22 22.7298 1019.5 21.8926 1024.2 21.8926C1029.45 21.8926 1034.01 22.908 1037.92 24.9387C1041.8 26.9695 1045.02 29.7128 1047.52 33.1508C1050.02 36.5889 1051.83 40.4901 1052.95 44.89C1054.07 49.29 1054.46 53.8681 1054.14 58.66H1009.63C1009.86 64.1645 1011.26 68.1547 1013.8 70.6308V70.6486ZM1032.95 38.0852C1030.93 35.8585 1027.84 34.7362 1023.7 34.7362C1021 34.7362 1018.75 35.1994 1016.96 36.1079C1015.17 37.0342 1013.73 38.1565 1012.66 39.5281C1011.58 40.882 1010.84 42.3249 1010.39 43.839C1009.95 45.3532 1009.7 46.707 1009.61 47.9184H1037.17C1036.37 43.6075 1034.97 40.3297 1032.93 38.103L1032.95 38.0852Z" fill="white"/><path d="M912.237 70.6486C914.775 73.1247 918.449 74.3539 923.205 74.3539C926.63 74.3539 929.576 73.4988 932.042 71.7709C934.509 70.0608 936.018 68.2438 936.568 66.3199H951.475C949.097 73.7482 945.423 79.0567 940.507 82.2453C935.574 85.434 929.611 87.0372 922.619 87.0372C917.774 87.0372 913.391 86.2534 909.504 84.7036C905.6 83.1538 902.299 80.9271 899.602 78.0591C896.904 75.1911 894.81 71.7531 893.337 67.7628C891.864 63.7726 891.137 59.3726 891.137 54.5807C891.137 49.7888 891.9 45.6382 893.408 41.648C894.917 37.6577 897.064 34.2018 899.85 31.2804C902.636 28.3768 905.955 26.0788 909.806 24.4043C913.657 22.7298 917.934 21.8926 922.637 21.8926C927.89 21.8926 932.451 22.908 936.355 24.9387C940.241 26.9695 943.453 29.7128 945.956 33.1508C948.458 36.5889 950.268 40.4901 951.386 44.89C952.504 49.29 952.895 53.8681 952.575 58.66H908.067C908.298 64.1645 909.7 68.1547 912.237 70.6308V70.6486ZM931.386 38.0852C929.363 35.8585 926.275 34.7362 922.14 34.7362C919.442 34.7362 917.189 35.1994 915.396 36.1079C913.604 37.0342 912.166 38.1565 911.102 39.5281C910.019 40.882 909.274 42.3249 908.83 43.839C908.386 45.3532 908.138 46.707 908.049 47.9184H935.609C934.811 43.6075 933.409 40.3297 931.368 38.103L931.386 38.0852Z" fill="white"/><path d="M149.07 149.635V128.259H21.2958V64.1293H149.07V42.7529H0V149.635H149.07Z" fill="white"/><path d="M191.662 0H0V21.3764H170.366V85.5057H42.5915V106.882H170.366V171.011H0V192.388H170.366H191.662V0Z" fill="white"/><path d="M537.31 192.388H557.612V118.194H537.31V192.388ZM557.612 89.9239H537.31V106.722H557.612V89.9239ZM501.143 163.69C501.143 164.83 501.019 166.362 500.806 168.286C500.557 170.192 499.918 172.081 498.871 173.951C497.807 175.821 496.209 177.407 494.009 178.761C491.808 180.115 488.72 180.774 484.71 180.774C483.095 180.774 481.515 180.631 479.989 180.346C478.463 180.061 477.132 179.562 475.996 178.85C474.843 178.119 473.955 177.14 473.281 175.911C472.607 174.664 472.269 173.132 472.269 171.315C472.269 169.498 472.607 167.823 473.281 166.576C473.955 165.329 474.825 164.314 475.925 163.494C477.025 162.675 478.321 162.034 479.794 161.553C481.267 161.072 482.775 160.698 484.284 160.395C485.899 160.11 487.531 159.878 489.146 159.682C490.779 159.504 492.323 159.255 493.796 158.97C495.269 158.685 496.653 158.311 497.949 157.901C499.226 157.473 500.309 156.868 501.161 156.102V163.708L501.143 163.69ZM474.541 141.014C474.914 137.005 476.262 134.137 478.534 132.41C480.823 130.682 483.964 129.827 487.957 129.827C489.767 129.827 491.471 129.951 493.033 130.183C494.612 130.414 495.979 130.895 497.185 131.608C498.357 132.32 499.333 133.336 500.043 134.618C500.77 135.919 501.107 137.665 501.107 139.856C501.196 141.958 500.593 143.561 499.262 144.648C497.913 145.752 496.103 146.589 493.831 147.159C491.542 147.729 488.916 148.157 485.97 148.46C483.006 148.745 480.007 149.137 476.954 149.618C473.902 150.098 470.885 150.74 467.868 151.541C464.869 152.361 462.189 153.59 459.865 155.193C457.522 156.814 455.623 159.005 454.15 161.731C452.677 164.456 451.914 167.93 451.914 172.134C451.914 175.946 452.571 179.259 453.849 182.038C455.144 184.8 456.919 187.115 459.208 188.932C461.497 190.749 464.177 192.085 467.212 192.94C470.264 193.795 473.565 194.241 477.079 194.241C481.657 194.241 486.129 193.564 490.513 192.228C494.896 190.874 498.712 188.54 501.959 185.191C502.048 186.421 502.225 187.65 502.438 188.843C502.687 190.037 502.989 191.212 503.379 192.353H523.965C523.007 190.821 522.35 188.54 521.96 185.459C521.587 182.395 521.392 179.188 521.392 175.857V137.255C521.392 132.748 520.38 129.132 518.392 126.406C516.387 123.681 513.814 121.561 510.673 120.029C507.532 118.497 504.053 117.464 500.238 116.947C496.422 116.413 492.66 116.163 488.933 116.163C484.834 116.163 480.752 116.573 476.724 117.375C472.678 118.194 469.022 119.548 465.774 121.472C462.527 123.378 459.865 125.925 457.771 129.078C455.676 132.231 454.47 136.204 454.186 140.978H474.488L474.541 141.014ZM416.652 192.388H439.101V170.281H416.652V192.388ZM361.602 132.534V146.874C364.087 146.874 366.678 146.945 369.393 147.088C372.108 147.23 374.611 147.765 376.9 148.656C379.189 149.582 381.07 151.025 382.543 153.038C384.016 155.051 384.779 157.972 384.779 161.802C384.779 166.683 383.2 170.531 380.059 173.345C376.918 176.16 373.049 177.585 368.47 177.585C365.524 177.585 362.969 177.051 360.822 176.017C358.674 174.966 356.882 173.559 355.462 171.778C354.042 170.014 352.924 167.894 352.179 165.472C351.416 163.031 350.99 160.466 350.883 157.794H331.575C331.487 163.637 332.303 168.803 334.078 173.292C335.834 177.799 338.337 181.593 341.584 184.693C344.814 187.81 348.754 190.179 353.368 191.8C358 193.421 363.111 194.241 368.736 194.241C373.599 194.241 378.266 193.528 382.756 192.085C387.246 190.66 391.186 188.558 394.629 185.779C398.054 183 400.804 179.562 402.845 175.447C404.904 171.332 405.915 166.647 405.915 161.375C405.915 155.639 404.354 150.704 401.195 146.589C398.054 142.474 393.706 139.802 388.187 138.555V138.27C392.854 136.934 396.368 134.387 398.693 130.664C401.035 126.941 402.189 122.63 402.189 117.749C402.189 113.26 401.177 109.287 399.189 105.849C397.184 102.411 394.593 99.4898 391.399 97.085C388.204 94.6979 384.602 92.8988 380.609 91.7052C376.616 90.4939 372.605 89.9061 368.594 89.9061C363.466 89.9061 358.781 90.7433 354.593 92.4178C350.387 94.0923 346.802 96.4615 343.785 99.5254C340.786 102.589 338.461 106.241 336.775 110.499C335.107 114.756 334.184 119.477 333.989 124.643H353.279C353.191 119.477 354.451 115.184 357.077 111.799C359.704 108.397 363.59 106.704 368.719 106.704C372.445 106.704 375.729 107.862 378.586 110.16C381.443 112.458 382.863 115.754 382.863 120.065C382.863 122.933 382.188 125.231 380.804 126.959C379.42 128.669 377.663 130.005 375.498 130.895C373.351 131.804 371.043 132.356 368.559 132.552C366.074 132.748 363.75 132.748 361.549 132.552M301.424 124.376H323.164C322.489 118.444 320.874 113.171 318.301 108.575C315.728 103.979 312.462 100.131 308.505 97.0315C304.547 93.9141 300.075 91.5449 295.071 89.9239C290.066 88.3028 284.742 87.4834 279.117 87.4834C271.291 87.4834 264.281 88.8907 258.034 91.6518C251.787 94.4307 246.534 98.2429 242.24 103.142C237.945 108.023 234.662 113.741 232.373 120.296C230.083 126.852 228.93 133.941 228.93 141.601C228.93 149.261 230.083 156.03 232.373 162.479C234.662 168.945 237.945 174.557 242.24 179.349C246.534 184.14 251.805 187.881 258.034 190.607C264.281 193.332 271.308 194.686 279.117 194.686C285.399 194.686 291.167 193.724 296.42 191.818C301.673 189.912 306.233 187.133 310.138 183.499C314.06 179.865 317.201 175.465 319.579 170.299C321.974 165.133 323.447 159.344 323.305 157.651H301.566C301.406 159.825 299.064 165.383 295.195 169.587C291.326 173.791 285.967 175.911 279.099 175.911C274.041 175.911 269.764 174.931 266.233 172.953C262.701 170.994 259.844 168.375 257.661 165.133C255.461 161.873 253.881 158.222 252.852 154.142C251.858 150.081 251.361 145.894 251.361 141.584C251.361 137.273 251.858 132.73 252.852 128.526C253.863 124.322 255.461 120.563 257.661 117.268C259.844 113.972 262.719 111.336 266.233 109.359C269.764 107.399 274.059 106.419 279.099 106.419C281.85 106.419 284.512 106.882 287.032 107.773C289.552 108.682 291.823 109.946 293.829 111.585C295.834 113.206 297.502 115.095 298.833 117.25C300.164 119.406 301.016 121.757 301.406 124.358" fill="white"/></g><defs><clipPath id="clip0_190_33"><rect width="1512" height="207.529" fill="white"/></clipPath></defs></svg>