<?xml version="1.0" encoding="utf-8" ?>
<!DOCTYPE svg PUBLIC "-//W3C//DTD SVG 1.1//EN" "http://www.w3.org/Graphics/SVG/1.1/DTD/svg11.dtd">
<svg xmlns:svg="http://www.w3.org/2000/svg" xmlns="http://www.w3.org/2000/svg" xmlns:xlink="http://www.w3.org/1999/xlink" version="1.1" id="svg2" x="0px" y="0px" viewBox="0 0 500 130" style="enable-background:new 0 0 500 130;" xml:space="preserve"><style type="text/css">.st0{fill:#FFFFFF;} .st1{fill:#009EDB;}</style><g id="g12" transform="matrix(1.25,0,0,-1.25,-206.2085,655.63388)"><path id="path34" class="st0" d="M236.3,474.7c0-2.5-2.1-4.5-4.5-4.5h-6.7c-2.5,0-4.5,2.1-4.5,4.5v18c0,2.5,2.1,4.5,4.5,4.5h6.7 c2.5,0,4.5-2,4.5-4.5V474.7z M231.8,503.9h-6.7c-6.2,0-11.3-5.1-11.3-11.3v-18c0-6.2,5-11.3,11.3-11.3h6.7c2.9,0,5.5,1.1,7.5,2.8 c2.3,2.1,3.8,5.1,3.8,8.4v18C243.1,498.9,238,503.9,231.8,503.9"/><path id="path38" class="st0" d="M168.3,523.9c-2.4,0-3.4-0.9-3.4-2.6V466c0-1.8,1-2.6,3.4-2.6c2.4,0,3.4,0.9,3.4,2.6v55.3 C171.7,523.1,170.7,523.9,168.3,523.9"/><path id="path42" class="st0" d="M310.4,470.2l-11.3,0c-2.5,0-4.5,2.1-4.5,4.5v18c0,2.5,2.1,4.5,4.5,4.5l11.3,0V470.2z M313.8,523.9L313.8,523.9L313.8,523.9c-2.4,0-3.4-0.9-3.4-2.6V504c-2.3,0-11.3,0-11.3,0c-6.2,0-11.3-5.1-11.3-11.3v-18 c0-6.2,5-11.3,11.3-11.3c0,0,14.9,0,15,0c2.1,0.1,3,1,3,2.6v55.3C317.1,523.1,316.2,523.9,313.8,523.9"/><path id="path46" class="st0" d="M365.2,523.9c-2.4,0-3.4-0.9-3.4-2.6V466c0-1.8,1-2.6,3.4-2.6c2.4,0,3.4,0.9,3.4,2.6v55.3 C368.6,523.1,367.6,523.9,365.2,523.9"/><path id="path50" class="st0" d="M561.6,523.9c-2.4,0-3.4-0.9-3.4-2.6V466c0-1.8,1-2.6,3.4-2.6c2.4,0,3.4,0.9,3.4,2.6v55.3 C565,523.1,564,523.9,561.6,523.9"/><path id="path54" class="st0" d="M545.2,523.9c-2.4,0-3.4-0.9-3.4-2.6V466c0-1.8,1-2.6,3.4-2.6c2.4,0,3.4,0.9,3.4,2.6v55.3 C548.6,523.1,547.6,523.9,545.2,523.9"/><path id="path58" class="st0" d="M381.6,523.9c-2.4,0-3.4-0.9-3.4-2.6V466c0-1.8,1-2.6,3.4-2.6s3.4,0.9,3.4,2.6v55.3 C385,523.1,384,523.9,381.6,523.9"/><path id="path62" class="st0" d="M417.2,474.7c0-2.5-2-4.5-4.5-4.5l-11.3,0v20.3v6.7l11.3,0c2.5,0,4.5-2,4.5-4.5V474.7L417.2,474.7 z M412.7,503.9c0,0-8.9,0-11.3,0v17.3c0,1.7-1,2.6-3.4,2.6h0c-2.4,0-3.4-0.8-3.4-2.6V466c0-1.6,0.9-2.5,3-2.6c0.1,0,15,0,15,0 c6.2,0,11.3,5,11.3,11.3v18C424,498.9,418.9,503.9,412.7,503.9"/><path id="path66" class="st0" d="M511.6,495c0,1.2,1,2.2,2.3,2.2h11.3c1.3,0,2.3-1,2.3-2.2V487h-15.8L511.6,495L511.6,495z M531.6,470.2c-0.3,0-17.7,0-17.7,0c-1.2,0-2.3,1-2.3,2.3v7.9h19.2c2,0,3.4,1.4,3.4,3.4V495c0,4.9-4,9-9,9h-11.3c-5,0-9-4.1-9-9 v-22.5c0-5,4-9,9-9h17.7c1.8,0,2.6,1,2.6,3.4C534.2,469.2,533.3,470.2,531.6,470.2"/><path id="path70" class="st0" d="M476.9,497.2h17.7c1.8,0,2.6,1,2.6,3.4c0,2.4-0.9,3.4-2.6,3.4c0,0-17.7,0-17.7,0c-5,0-9-4-9-9 v-4.5c0-4.2,3-8.1,7.2-8.8l13.5-2.5c1-0.2,1.8-1.2,1.8-2.2v-4.5c0-1.3-1-2.3-2.3-2.3c0,0-17.4,0-17.7,0c-1.8,0-2.6-1-2.6-3.4 c0-2.4,0.9-3.4,2.6-3.4c0,0,17.7,0,17.7,0c5,0,9,4,9,9v4.5c0,4.2-3,8-7.2,8.8l-13.5,2.5c-1,0.2-1.8,1.2-1.8,2.2v4.5 C474.7,496.2,475.7,497.2,476.9,497.2"/><path id="path74" class="st0" d="M280,495c0,5-4,9-9,9h-11.2c-5,0-9-4-9-9c0,0,0-28.7,0-28.9c0-1.8,1-2.6,3.4-2.6 c2.4,0,3.4,0.9,3.4,2.6V495c0,1.2,1,2.3,2.3,2.3H271c1.2,0,2.3-1,2.3-2.3V466c0-1.8,1-2.6,3.4-2.6h0c2.4,0,3.4,0.9,3.4,2.6v11.4 L280,495L280,495z"/><path id="path78" class="st0" d="M453.4,470.2l-13.5,0c-1.2,0-2.3,1-2.3,2.3v5.6c0,1.2,1,2.3,2.3,2.3h13.5V470.2L453.4,470.2z M451.1,503.9c0,0-16.3,0-16.6,0c-1.8,0-2.6-1-2.6-3.4c0-2.4,0.9-3.4,2.6-3.4h16.6c1.2,0,2.3-1,2.3-2.3V487h-13.5c-5,0-9-4-9-9 v-5.6c0-5,4-9,9-9h16.9c1.8,0,3.4,1.5,3.4,3.4v28.2C460.1,499.9,456.1,503.9,451.1,503.9"/><path id="path82" class="st0" d="M331.6,495c0,1.2,1,2.2,2.3,2.2h11.3c1.2,0,2.3-1,2.3-2.2V487h-15.8L331.6,495L331.6,495z M351.5,470.2c-0.3,0-17.7,0-17.7,0c-1.2,0-2.3,1-2.3,2.3v7.9h19.2c2,0,3.4,1.4,3.4,3.4V495c0,4.9-4,9-9,9h-11.3c-5,0-9-4.1-9-9 v-22.5c0-5,4-9,9-9h17.7c1.8,0,2.6,1,2.6,3.4C354.1,469.2,353.2,470.2,351.5,470.2"/><path id="path86" class="st0" d="M207.7,503.6c-2.4,0.5-3.8-0.7-4.2-2l-10-28.1l-10,28.2c-0.5,1.4-2.1,2.6-4.3,2 c-2.9-0.8-2.5-3-2.3-3.8l13.1-36.5l-1.7-4.8c0,0-0.5-1.9-3-1.9h-3.9c-1.2,0-2.3-0.4-2.3-3.3c0-2.3,0.9-3.3,3-3.3h2.9 c3.5,0,7.4,0.7,9.3,6l15.6,43.9C210.2,500.6,210.4,503,207.7,503.6"/><path id="path90" class="st1" d="M548.6,447.3c0,1.8-1,2.6-3.4,2.6c-2.4,0-3.4-0.9-3.4-2.6v-23.5c0-1.8,1-2.6,3.4-2.6 c2.4,0,3.4,0.9,3.4,2.6V447.3z M564.9,447.3c0,1.8-1,2.6-3.4,2.6c-2.4,0-3.4-0.9-3.4-2.6v-23.5c0-1.8,1-2.6,3.4-2.6 c2.4,0,3.4,0.9,3.4,2.6V447.3z M317.1,447.3c0,1.8-1,2.6-3.4,2.6c-2.4,0-3.4-0.9-3.4-2.6c0-1.1,0-23.3,0-23.5c0-1.8,1-2.6,3.4-2.6 c2.4,0,3.4,0.9,3.4,2.6L317.1,447.3L317.1,447.3z M401.5,447.3c0,1.8-1,2.6-3.4,2.6s-3.4-0.9-3.4-2.6v-23.5c0-1.8,1-2.6,3.4-2.6 c2.4,0,3.4,0.9,3.4,2.6V447.3z M385,447.3c0,1.8-1,2.6-3.4,2.6c-2.4,0-3.4-0.9-3.4-2.6v-23.5c0-1.8,1-2.6,3.4-2.6 c2.4,0,3.4,0.9,3.4,2.6V447.3z M368.5,447.3c0,1.8-1,2.6-3.4,2.6c-2.4,0-3.4-0.9-3.4-2.6v-23.5c0-1.8,1-2.6,3.4-2.6 c2.4,0,3.4,0.9,3.4,2.6V447.3z M171.7,423.7c0-1.7-1-2.6-3.4-2.6c-2.4,0-3.4,0.8-3.4,2.6v23.5c0,1.7,1,2.6,3.4,2.6 c2.4,0,3.4-0.8,3.4-2.6V423.7z"/></g></svg>