<?xml version="1.0" encoding="utf-8" ?>
<!DOCTYPE svg PUBLIC "-//W3C//DTD SVG 1.1//EN" "http://www.w3.org/Graphics/SVG/1.1/DTD/svg11.dtd">
<svg xmlns="http://www.w3.org/2000/svg" viewBox="0 0 291.28 70.07"><defs><style>.cls-1{fill:#7da756;}.cls-2,.cls-3{fill:#b0b7bc;}.cls-2{stroke:#000;stroke-linecap:round;stroke-linejoin:round;stroke-opacity:0;stroke-width:0.22px;}</style></defs><g id="Layer_2" data-name="Layer 2"><g id="Layer_1-2" data-name="Layer 1"><g id="Layer_2-2" data-name="Layer 2"><g id="svg3519"><g id="layer1"><path id="path3011" class="cls-1" d="M23.74,33.32,3.77,20h0l-.44-.23-.67-.22L2,19.28l-.89.22L.44,20,0,20.84V22.4H0V50.48H0v.67l.44,1.56.23.89.66,1.11L2,55.6l.88.89h0l11.54,7.58,9.32,6v-8.9L7.54,50.7h0l-.44-.45-.22-.66-.22-1.12h0l.22-1.11.22-.45h.44l16,10.48.22-9.81L7.54,36.88h0l-.44-.44-.22-.67V34.65h0V33.54l.22-.45.44-.22,16.2,10.7Z"/><path id="path3007" class="cls-2" d="M1.55,15l6.88,4.5L24.18,8.58h0l.45-.22h.44l.89.22h0L26.4,9v.44l-.22.45-15.75,11,6.21,4.23L32.39,13.93h0l.45-.22h.66l.67.22h0l.22.67.22.22-.22.45L18.64,26.41l6.87,4.46L45.92,16.38h0l.23-.45.44-.44.22-.67v-.67l-.22-.89-.67-.67-1.1-.89h0L39.05,8.13h0l-.45-.22-.88-.44L36.38,7l-.66.22-.67.23h0l.23-.23V6.57l-.23-.44-.44-.67-.67-.67L32.61,3.9h0L27.51.56h0L27.07.33,25.74.11h-2L22.41.56l-1.11.89h0Z"/><path id="path3015" class="cls-1" d="M49.7,17.72,29.51,31.09h0l-.45.44-1.33,1.34L27.07,34l-.45,1.33-.44,1.56-.22,2h0V64.52h0l.22.89.22.89.44.67.67.67.44.22.67.22h.44l.89-.22L31.73,67h0l9.09-6.24,5.33-3.57h0l.44-.44.67-.45.66-.89.67-1.11L49.25,53l.45-1.56.22-2h0V31.53l-14.64,10v9.59l7.32-4.91h0L43,46h.44l.23.67h0v2.45L33.28,56.05V39.11L49.7,28Z"/><g id="g2997"><g id="g2999"><g id="g3017"><path id="path3019" class="cls-3" d="M64.34,44V26h3.33L76.1,36.88,84.31,26h3.32V44H83.86V32.87h0l.22-2h0L83,32.65l-6.66,9.14h-.89L68.8,32.65h0l-.67-.89-.44-.89h0V44Z"/></g><g id="g3021"><path id="path3023" class="cls-3" d="M95.18,44V26h18.19v3.12H99.17v4h8.43V36H99.17v4.46h14.42V44Z"/></g><g id="g3025"><path id="path3027" class="cls-3" d="M137.33,29.08H124.24V40.45h13.09v-4h-6.88v-2.9h10.87v6h0v1.33l-.22.9-.22.66-.44.67h0l-.45.23-.88.44-2.22.22H124.68l-2.21-.22-.89-.44-.45-.23h0l-.44-.67-.22-.66-.22-.9V30.2h0V29.08l.22-1.11.22-.67.44-.45h0l.45-.44.89-.22,2.21-.23h12.21l2.22.23.66.22.67.44h0l.44.45.22.67.22.89v1.56l-4,.67Z"/></g><g id="g3029"><path id="path3031" class="cls-3" d="M161.51,44V26h18.42v3.12h-14.2v4h8.21V36h-8.21v4.46h14.42V44Z"/></g><g id="g3033"><path id="path3035" class="cls-3" d="M185.47,44V29.08h2.67l12.42,9.81V29.08h3.11V44h-2.44L188.8,34V44Z"/></g><g id="g3037"><path id="path3039" class="cls-3" d="M208.77,44V29.08h15.75v2.68h-12.2v3.12h7.1v2.67h-7.1v3.57h12.42V44Z"/></g><g id="g3041"><path id="path3043" class="cls-3" d="M229,44V29.08h13.09l1.55.23,1.11.66.44.23.23.67L245.6,32v3.57h0l-.22,1.11-.23.67-.44.22-1.11.67-1.55.22h-2l7.1,5.57h-5.1l-6.21-5.57h-3.33V44Zm11.53-12.25h-8v4h8.87l.45-.22.22-.45.22-.45V32.87h0l-.22-.44-.22-.45-.45-.22Z"/></g><g id="g3045"><path id="path3047" class="cls-3" d="M265.12,32H254v9.14h11.09V38h-5.77V35.32h9.32v5.13h0l-.22,1.78-.22.45-.45.44h0l-.44.45-.67.22L264.9,44H254.25l-2-.22-.66-.22-.45-.45h0l-.22-.44-.44-.45V32.65h0V30.87l.44-.45.22-.45h0l.45-.44.66-.22,2-.23H264.9l1.77.23.67.22.44.22h0l.45.45.22.67.22,1.56v.44l-3.55.67Z"/></g><g id="g3049"><path id="path3051" class="cls-3" d="M279.76,44V37.33l-8-8.25h4.88l5.1,5.57,5.32-5.57h4.22l-8,8V44Z"/></g></g></g></g></g></g></g></g></svg>