<?xml version="1.0" encoding="utf-8" ?>
<!DOCTYPE svg PUBLIC "-//W3C//DTD SVG 1.1//EN" "http://www.w3.org/Graphics/SVG/1.1/DTD/svg11.dtd">
<svg xmlns="http://www.w3.org/2000/svg" id="Shell_2012_PECTEN_RGB" data-name="Shell 2012 PECTEN RGB" viewBox="0 0 72.55 67.24"><defs><style>.cls-1{fill:none;stroke:#fff;stroke-miterlimit:40;stroke-width:1.75px;}.cls-2{fill:#fbce07;}.cls-3{fill:#dd1d21;fill-rule:evenodd;}</style></defs><path class="cls-1" d="M66.7,101.9h-18L47,88.6,36.1,80.7a33.27,33.27,0,0,1-.7-7.1,35.4,35.4,0,0,1,70.8,0,33.27,33.27,0,0,1-.7,7.1L94.6,88.6,93,101.9H75l-1,.8a5,5,0,0,1-3.1,1,5.71,5.71,0,0,1-3.1-1Z" transform="translate(-34.52 -37.34)"/><path class="cls-2" d="M66.7,101.9h-18L47,88.6,36.1,80.7a33.27,33.27,0,0,1-.7-7.1,35.4,35.4,0,0,1,70.8,0,33.27,33.27,0,0,1-.7,7.1L94.6,88.6,93,101.9H75l-1,.8a5,5,0,0,1-3.1,1,5.71,5.71,0,0,1-3.1-1Z" transform="translate(-34.52 -37.34)"/><path class="cls-3" d="M66.7,101.9h-18L47,88.6,36.1,80.7a33.27,33.27,0,0,1-.7-7.1,35.4,35.4,0,0,1,70.8,0,33.27,33.27,0,0,1-.7,7.1L94.6,88.6,93,101.9H75l-1,.8a5,5,0,0,1-3.1,1,5.71,5.71,0,0,1-3.1-1Zm.6-6.2H54.2L52.9,85.1,42.1,77.3a15.72,15.72,0,0,1-.5-3.8,14.27,14.27,0,0,1,1.3-6.1L62,86.7,43.5,63.8a15,15,0,0,1,4.6-7.7L64.7,84.8,50,53.4a15.12,15.12,0,0,1,7.6-5.3L67.8,83.7,60.4,46.6a14.86,14.86,0,0,1,7.4-1.9,8.55,8.55,0,0,1,1.6.1l1.5,38.5,1.5-38.5a8.55,8.55,0,0,1,1.6-.1,16.08,16.08,0,0,1,7.4,1.9L74,83.6,84.2,48a15.12,15.12,0,0,1,7.6,5.3L77,84.8,93.6,56.1a14.62,14.62,0,0,1,4.6,7.7L79.7,86.7,98.8,67.4a14.27,14.27,0,0,1,1.3,6.1,16.78,16.78,0,0,1-.5,3.8L88.8,85.1,87.5,95.7h-13l-1.9,1.4a2.58,2.58,0,0,1-1.7.5,3.3,3.3,0,0,1-1.7-.5Z" transform="translate(-34.52 -37.34)"/></svg>