<?xml version="1.0" encoding="utf-8" ?>
<!DOCTYPE svg PUBLIC "-//W3C//DTD SVG 1.1//EN" "http://www.w3.org/Graphics/SVG/1.1/DTD/svg11.dtd">
<svg xmlns="http://www.w3.org/2000/svg" width="100" height="19" viewBox="0 0 100 19" fill="none"><path d="M33.9218 0.374695H28.5493V7.52851H22.9566V0.374695H17.584V18.373H22.9566V11.2934H28.5493V18.373H33.9218V0.374695ZM52.6108 14.7565V0.374695H47.2382V18.373H56.9529L57.7608 14.7565H52.6108ZM43.2663 0.374695H37.8937V18.373H43.2663V0.374695ZM65.0468 0.374695H59.6767V18.373H65.0468V0.374695ZM91.5345 4.96827C91.5345 3.98869 92.4924 3.53598 94.0357 3.53598C95.729 3.53598 97.5699 3.91452 98.8205 4.44395L98.3803 0.525597C96.9796 0.223791 95.729 -0.00128365 93.4504 -0.00128365C89.1083 -0.00128365 86.1644 1.75072 86.1644 5.42099C86.1644 11.7461 94.5559 10.4673 94.5559 13.4035C94.5559 14.5314 93.743 15.1325 91.7571 15.1325C89.9938 15.1325 87.2674 14.5314 85.6492 13.7027L86.2394 17.8462C87.8577 18.4498 90.0638 18.749 91.8321 18.749C96.3193 18.749 99.9985 17.2426 99.9985 12.7231C99.9985 6.70238 91.5345 7.83031 91.5345 4.96827ZM76.3797 14.0813C81.3796 14.0813 84.5461 11.4443 84.5461 6.85073C84.5461 1.80699 81.162 -0.00128365 75.6419 -0.00128365C73.5083 -0.00128365 70.9321 0.149618 69.0937 0.374695V18.373H74.4663V14.0813H76.3797ZM79.2486 6.92745C79.2486 9.26005 78.1456 10.8433 75.3467 10.8433H74.4663V3.40554C74.7789 3.38764 75.0716 3.38763 75.3467 3.38763C77.9955 3.38763 79.2486 4.66647 79.2486 6.92745ZM7.28404 14.0813C12.2864 14.0813 15.4505 11.4443 15.4505 6.85073C15.4505 1.80699 12.0663 -0.00128365 6.54869 -0.00128365C4.41267 -0.00128365 1.83893 0.149618 -0.00195312 0.374695V18.373H5.37063V14.0813H7.28404ZM10.1554 6.92745C10.1554 9.26005 9.04989 10.8433 6.25355 10.8433H5.37063V3.40554C5.68328 3.38764 5.97842 3.38763 6.25355 3.38763C8.90232 3.38763 10.1554 4.66647 10.1554 6.92745Z" fill="white"/></svg>