<?xml version="1.0" encoding="utf-8" ?>
<!DOCTYPE svg PUBLIC "-//W3C//DTD SVG 1.1//EN" "http://www.w3.org/Graphics/SVG/1.1/DTD/svg11.dtd">
<svg xmlns:cc="http://creativecommons.org/ns#" xmlns:inkscape="http://www.inkscape.org/namespaces/inkscape" xmlns:rdf="http://www.w3.org/1999/02/22-rdf-syntax-ns#" xmlns:sodipodi="http://sodipodi.sourceforge.net/DTD/sodipodi-0.dtd" xmlns:svg="http://www.w3.org/2000/svg" xmlns="http://www.w3.org/2000/svg" xmlns:xlink="http://www.w3.org/1999/xlink" version="1.1" id="svg5009" x="0px" y="0px" viewBox="0 0 178.6 27.2" style="enable-background:new 0 0 178.6 27.2;" xml:space="preserve"><style type="text/css">.st0{fill:#FFEE01;} .st1{fill:#FFFFFF;}</style><g id="layer1" transform="translate(-38.488112,-148.88459)"><g id="g5069" transform="translate(0.13229141,-0.13228832)"><path id="path158" class="st0" d="M203.6,175.7c3-5.8,7.2-10.2,12.9-13.3 c0,0-12.9-12.9-12.9-12.9c-6.4,6.5-10.2,10.2-12.9,12.9c0,0,0,0,0,0C196.2,165.4,200.4,169.7,203.6,175.7"/><path id="path162" class="st1" d="M49.7,172h-2.9v-7.9l-8-11.3h3.7l5.7,8.5l5.7-8.5h3.7 l-7.9,11.2V172z"/><path id="path166" class="st1" d="M64.4,152.3c-1.4,0-9.4,0.6-9.4,10.3c0,9.1,7.9,9.9,9.5,9.9 c1.6,0,9.4-0.9,9.4-10.2C74,153.6,66.9,152.3,64.4,152.3 M64.6,170c-2.8,0-6.6-1.7-6.6-7.6c0-5.4,3.6-7.6,6.4-7.6 c2.6,0,6.5,1.7,6.5,7.9C71,168.7,66.6,170,64.6,170"/><path id="path170" class="st1" d="M78.3,172h-2.9v-19.2l3.1,0v9.1l9-9.1h4l-8,8l8.6,11.1l-3.7,0 l-7.1-9.4l-3,2.8L78.3,172z"/><path id="path174" class="st1" d="M99,152.3c-2.8,0.1-9.6,1.5-9.6,10c0,9.3,7.4,10.3,9.7,10.3 c2.6,0,9.3-1.8,9.3-10.2C108.5,152.3,98.9,152.3,99,152.3 M99,170c-2.8,0-6.6-1.5-6.6-7.6c0-5.8,3.8-7.6,6.5-7.6 c3.4,0,6.4,2.5,6.4,7.5C105.4,168.7,101.3,170,99,170"/><path id="path178" class="st1" d="M119.2,162l8.3,0l0,10h-2.3l-0.3-1.8 c-1.8,1.8-3.6,2.4-6.5,2.4c-4.2,0-8.8-3.3-8.8-10.1c0-4.6,2.9-9.9,9.1-9.9c3.3,0,7.8,1.1,8.6,6.1l-3,0c-0.4-1.3-1.5-3.7-5.3-3.7 c-3.1,0-6.2,1.9-6.2,7.7c0,5.5,3.5,7.6,6.1,7.6c2.6,0,5-0.9,6-5.5h-5.6L119.2,162"/><path id="path182" class="st1" d="M137.9,152.9l-3.9,0l-6.1,19.1h3.1l1.6-5.3l7.5,0l2.1,5.3 l3.2,0L137.9,152.9z M133.4,164.3l2.6-8.6l0.6,1.5l2.6,7H133.4z"/><path id="path186" class="st1" d="M141.9,152.9h3.3c2.6,10.4,3.1,12.2,3.6,14.2 c0.5-1.9,1.4-4.4,3.9-14.2h3c3,10.6,3.4,12.2,4.1,14.4c0.5-1.8,1.1-3.9,3.6-14.4h3.1l-5.1,19.1l-3.1,0c-2.5-8.5-2.8-9.5-4-14 c-1,3.6-1.2,4.5-3.9,13.9h-3.2L141.9,152.9"/><path id="path190" class="st1" d="M174,152.9h-3.8l-6.8,19.1h3l1.7-5.1l7.6,0l1.9,5.1l3.2,0 L174,152.9z M169.1,164.4l2.9-8.5l0,0l3,8.5L169.1,164.4z"/></g></g></svg>